<svg xmlns="http://www.w3.org/2000/svg" viewBox="0 0 181.74 263.68"><defs><style>.cls-1{fill:#fff;}.cls-2{fill:#ffad9e;}.cls-3{fill:#c00;}.cls-4{fill:#900;}</style></defs><g id="Calque_2" data-name="Calque 2"><g id="Calque_1-2" data-name="Calque 1"><path class="cls-1" d="M181.17,152.3c-1.52-13.62-6.17-25.83-13.4-35.3a54.65,54.65,0,0,0-31.94-20.42A72.93,72.93,0,0,0,122,94.84a122.68,122.68,0,0,0,3.55-83.05,14.17,14.17,0,0,0-1-2.58A16.21,16.21,0,0,0,115.3,1c-.41-.12-.81-.25-1.25-.37a17.43,17.43,0,0,0-13.3,1.83,16.5,16.5,0,0,0-7.83,11.81s0,0,0,.07c0,.28-.09.56-.12.84l0,.06c0,.28-.1.56-.13.81C89.5,33,81.46,47,63,67.42A214.37,214.37,0,0,1,40.42,88.86c-19.79,16.36-32.91,37.61-38,61.42-.09.4-.19.81-.28,1.21,0,.09,0,.22,0,.34-.09.35-.16.72-.22,1.06V153c-.09.37-.15.77-.22,1.15l-.18,1v.09c-.07.37-.13.72-.19,1.09q-.75,5-1,10L0,172.15a105.52,105.52,0,0,0,1.18,15c.13.81.29,1.59.41,2.37a90.61,90.61,0,0,0,15.58,37.05l.66.9.09.1a77.65,77.65,0,0,0,21.59,19.82A78.63,78.63,0,0,0,68,258l3.46.47a86.49,86.49,0,0,0,11,.71h.38c15.23,0,31.44-3.61,48.27-10.78a.1.1,0,0,1,.06,0c17.23-8.38,31.16-22.65,40.23-41.29a102.58,102.58,0,0,0,10.34-41.82A92.85,92.85,0,0,0,181.17,152.3Zm-3.21,18a1.76,1.76,0,0,1,0,.41,98.89,98.89,0,0,1-9.66,34.78c-8.72,17.94-22.09,31.66-38.61,39.69-40.16,17.11-68.12,10.23-84.48,1.41-20.13-10.82-34.46-30.82-39.57-55.16a2.12,2.12,0,0,1-.06-.43c-.13-.63-.25-1.25-.38-1.87a96.8,96.8,0,0,1-.46-32.32c.06-.37.12-.72.15-1.06l0-.09c.06-.34.13-.66.19-1s.12-.78.19-1.15c0,0,0-.06,0-.13l.19-.93a.22.22,0,0,1,0-.13.27.27,0,0,1,0-.15v0c.06-.41.15-.78.22-1.19,4.92-23.06,17.66-43.62,36.86-59.48a223.07,223.07,0,0,0,22.9-21.79c19-21,27.21-35.36,30.45-53.1a8.22,8.22,0,0,0,.15-.84l0-.06c0-.31.1-.62.16-.93v0a13.05,13.05,0,0,1,6.2-9.37,14,14,0,0,1,11.66-1.16c.25.06.49.19.78.28,0,0,0,0,0,0a12.85,12.85,0,0,1,6.48,6.2,14.4,14.4,0,0,1,.81,2.09,119.3,119.3,0,0,1-4.18,82.42c-.06.1-.09.22-.15.32a1.86,1.86,0,0,0-.25.56,96.49,96.49,0,0,1-29.7,38c-1.25-.13-2.49-.28-3.77-.47a66.8,66.8,0,0,1-19.82-6.42,1.51,1.51,0,0,1-.22-.13,72.4,72.4,0,0,1-8.13-4.86,1.71,1.71,0,0,0-2.4.41,1.73,1.73,0,0,0,.44,2.4,71,71,0,0,0,29.6,12,68.76,68.76,0,0,0,10.63.81c20.13,0,35.77-8.85,42.16-13.11a1.75,1.75,0,0,0,.47-2.4,1.71,1.71,0,0,0-2.37-.47c-6.24,4.17-21.66,12.9-41.42,12.53A99.91,99.91,0,0,0,120.5,98.27,68.45,68.45,0,0,1,135.09,100a51.37,51.37,0,0,1,30,19.13c6.86,9,11.25,20.6,12.69,33.63A90.2,90.2,0,0,1,178,170.34Z"/><path class="cls-2" d="M177.82,171a99.54,99.54,0,0,1-9.65,34.78c-8.74,17.92-22.09,31.63-38.61,39.66-40.16,17.1-68.09,10.21-84.45,1.42C25,236.06,10.67,216,5.56,191.71a114.91,114.91,0,0,0,54.22,27.62c54.25,10.83,94.77-23.54,99.68-27.84A116,116,0,0,0,177.82,171Z"/><path class="cls-2" d="M127,60.92a117.5,117.5,0,0,1-6.8,29.2c-.68,1.82-1.41,3.61-2.17,5.38l-.15.34a1.78,1.78,0,0,0-.25.56,96.33,96.33,0,0,1-29.7,38c-1.24-.13-2.49-.29-3.76-.48a66.82,66.82,0,0,1-19.81-6.41c13.29-13.36,32.05-35.1,41.86-62.19,6.07-16.82,8.58-31.18,9.11-43.42a.31.31,0,0,0,0-.1c0-.81.07-1.62.09-2.42l0-1.58c0-1,0-2.07,0-3.09V14.4c0-.3,0-.6,0-.9l0-.89c0-1.19-.09-2.35-.16-3.49,0-.32,0-.64-.06-1s0-.49,0-.73c0-.56-.09-1.11-.14-1.66,0-.27,0-.55-.08-.81a.45.45,0,0,0,0-.12A12.55,12.55,0,0,1,121.35,11a14.25,14.25,0,0,1,.84,2.09A119.09,119.09,0,0,1,127,60.92Z"/><path class="cls-3" d="M177.86,170.6c0,.13,0,.26,0,.39h0a116,116,0,0,1-18.36,20.49c-4.91,4.3-45.43,38.67-99.68,27.84A114.91,114.91,0,0,1,5.56,191.71h0c0-.14-.07-.27-.09-.41-.13-.63-.25-1.25-.36-1.88a96.73,96.73,0,0,1-.46-32.31c0-.35.11-.7.16-1l0-.09c.06-.34.11-.67.17-1l.21-1.14a.43.43,0,0,0,0-.11c.06-.32.12-.63.18-1a.2.2,0,0,0,0-.11.76.76,0,0,0,0-.16s0,0,0,0c.09-.39.16-.77.25-1.17,4.92-23.06,17.65-43.62,36.82-59.48A220,220,0,0,0,65.45,70c19-21,27.2-35.38,30.45-53.08,0-.29.09-.58.15-.86V16l.16-.93v0a13.09,13.09,0,0,1,6.19-9.37,14,14,0,0,1,11.65-1.16l.78.3c.32,3.09.52,6.35.58,9.81v.11c0,1,0,2,0,3.09l0,1.58c0,.8-.05,1.61-.09,2.42a.31.31,0,0,1,0,.1c-.53,12.24-3,26.6-9.11,43.42-9.81,27.09-28.57,48.83-41.86,62.19l-.22-.12A69.07,69.07,0,0,1,56,122.55a1.72,1.72,0,0,0-2,2.82,70.85,70.85,0,0,0,29.58,12,67.68,67.68,0,0,0,10.62.83c20.13,0,35.77-8.84,42.17-13.13a1.72,1.72,0,0,0-1.92-2.85c-6.24,4.17-21.65,12.88-41.4,12.53a100.39,100.39,0,0,0,27.34-36.19A67.07,67.07,0,0,1,135,100.22a51.21,51.21,0,0,1,30,19.13c6.85,9,11.24,20.6,12.69,33.6A89.61,89.61,0,0,1,177.86,170.6Z"/><ellipse class="cls-4" cx="126.68" cy="30.32" rx="7.36" ry="15.2"/><ellipse class="cls-4" cx="122.41" cy="75.36" rx="15.2" ry="7.36" transform="translate(18.34 174.52) rotate(-75.23)"/><ellipse class="cls-4" cx="102.86" cy="117.53" rx="15.2" ry="7.36" transform="translate(-50.36 147.84) rotate(-60)"/><ellipse class="cls-4" cx="165.46" cy="222.36" rx="15.2" ry="7.36" transform="translate(-108.77 182.13) rotate(-45)"/><ellipse class="cls-4" cx="122.87" cy="248.67" rx="15.2" ry="7.36" transform="translate(-92.68 74.11) rotate(-24.7)"/><ellipse class="cls-4" cx="75.07" cy="256.3" rx="7.36" ry="15.2" transform="translate(-184.22 320.3) rotate(-87.54)"/><ellipse class="cls-4" cx="24.91" cy="239.77" rx="7.36" ry="15.2" transform="translate(-195.2 141.46) rotate(-60)"/><ellipse class="cls-4" cx="163.08" cy="199.36" rx="15.2" ry="7.36" transform="translate(-93.21 173.71) rotate(-45)"/><ellipse class="cls-4" cx="118.94" cy="226.26" rx="15.2" ry="7.36" transform="translate(-83.68 70.42) rotate(-24.7)"/><ellipse class="cls-4" cx="71.15" cy="232.35" rx="7.36" ry="15.2" transform="translate(-164.04 293.45) rotate(-87.54)"/><ellipse class="cls-4" cx="20.99" cy="214.75" rx="7.36" ry="15.2" transform="translate(-175.49 125.55) rotate(-60)"/></g></g></svg>