<svg id="Calque_1" data-name="Calque 1" xmlns="http://www.w3.org/2000/svg" viewBox="0 0 850 781.35871"><path d="M152.63445,170.58283a208.26011,208.26011,0,0,1,55.62853-9.92542c3.2695,0,66.0014-1.97489,109.28135,25.87339,44.409,28.53071,25.16815,60.58887,83.45366,192.70564,43.58576,98.7876,56.45274,85.8281,83.43223,158.95416,4.70327,13.10157,10.18419,29.21315,25.87339,41.72614,30.578,24.46159,70.30513,7.197,116.10173,24.18005,27.37906,10.16,64.21424,58.98942,66.68384,63.22342,16.794,28.6956,158.84152,78.86574,154.53644,89.63846C615.162,756.299,230.16151,783.23161-2.27852,782.54913Z" transform="translate(2.27852 -1.20318)" style="fill:#4c5e5d"/><path d="M298.46843,131.20951v52.96966L179.59,176.58125V147.43916l17.54732-2.98714V125.63515l9.26739-15.57081,7.29155-1.64629V83.90913s1.7644-7.95,8.72681-7.95c6.96227,0,8.82052,7.29142,8.82052,7.29142v23.52081l18.535-3.97487V58.76523H257.917l-5.03363-25.00272a1.78745,1.78745,0,0,1,1.76413-2.14021h8.04437V9.74786h2.35218a4.7045,4.7045,0,1,1,5.4333,0h2.35218V31.6223h7.90372a1.78612,1.78612,0,0,1,1.76306,2.35218l-6.63245,24.88487h4.91632v69.52779Z" transform="translate(2.27852 -1.20318)" style="fill:#4c5e5d"/></svg>