<svg id="Calque_1" data-name="Calque 1" xmlns="http://www.w3.org/2000/svg" viewBox="0 0 825.28 353.3"><defs><style>.cls-1{fill:#fff;}.cls-2{fill:#c00;}</style></defs><path class="cls-1" d="M251,148.65H282.9q27.62,0,37.14,2.39a41.39,41.39,0,0,1,22.53,14q8.65,10.51,8.66,26.53t-8.5,26.37q-8.5,10.46-23.44,14-10.94,2.6-40.82,2.6H267v74.71H251Zm16,15.6v54.57l27.28.32q16.35,0,24-3a24.69,24.69,0,0,0,12-9.75,27.58,27.58,0,0,0,0-29.83,24.12,24.12,0,0,0-11.53-9.53q-7.15-2.82-23.39-2.81Z" transform="translate(-250.96)"/><path class="cls-1" d="M436.77,185.25q27.39,0,45.48,19.82a62.16,62.16,0,0,1,16.35,43q0,24.81-17.33,43.37T436.77,310q-27.28,0-44.56-18.57t-17.27-43.37a62,62,0,0,1,16.35-42.87Q409.38,185.24,436.77,185.25Zm0,14.94q-18.94,0-32.59,14.08a47.08,47.08,0,0,0-13.65,34,48.82,48.82,0,0,0,6.23,24.09,43.68,43.68,0,0,0,16.84,17.22,48,48,0,0,0,46.51,0,43.46,43.46,0,0,0,16.72-17.22A49.09,49.09,0,0,0,483,248.27a47.08,47.08,0,0,0-13.65-34Q455.73,200.2,436.77,200.19Z" transform="translate(-250.96)"/><path class="cls-1" d="M524.69,188.28h15.38v55.44q0,20.37,2.16,27.94a31.08,31.08,0,0,0,12.46,17.27q9.19,6.33,22.09,6.33t21.65-6.17a31.45,31.45,0,0,0,12.24-16.24q2.39-6.83,2.38-29.13V188.28h15.59v58.37q0,24.57-5.79,37A43.94,43.94,0,0,1,605.58,303q-11.48,7-28.8,7t-29-7a43.22,43.22,0,0,1-17.33-19.6q-5.73-12.62-5.74-38Z" transform="translate(-250.96)"/><path class="cls-1" d="M660,145.19h15.38V309.88H660Z" transform="translate(-250.96)"/><path class="cls-1" d="M740,191.26a67,67,0,0,1,27.23-5.57q25.34,0,43.32,18.19a60.12,60.12,0,0,1,18,43.85q0,26.1-17.87,44.39t-43,18.3a58.89,58.89,0,0,1-26.1-5.79A64.31,64.31,0,0,1,720,287V353.3H704.87V240.8q1.95-15.7,11.7-31.94Q727.28,196.83,740,191.26Zm-7.42,22.9Q719,228,719,248.7A49.07,49.07,0,0,0,725,273a44.09,44.09,0,0,0,17.33,17.22,47.87,47.87,0,0,0,23.82,6.33,45.47,45.47,0,0,0,23.23-6.33,46.31,46.31,0,0,0,17.32-17.87,48.62,48.62,0,0,0,6.44-24.09,48,48,0,0,0-6.38-24,46.72,46.72,0,0,0-17.17-17.59,45.77,45.77,0,0,0-23.66-6.34A45,45,0,0,0,732.59,214.16Z" transform="translate(-250.96)"/><path class="cls-2" d="M1010.12,8.17c-71.4-24.84-133.25,10.58-149.6,57.57-6.32,17.52-1.31,28.21,4,34.09,10.06,11.12,28,12.75,37.58,10.36a28.2,28.2,0,0,0,7.64-3.27,18.39,18.39,0,0,0,2.19,7.27,13.45,13.45,0,0,0,12.16,6.75c7,0,14.3-3.75,21.82-11.26a17.16,17.16,0,0,0,1.6,4c2.72,4.69,7.48,7.27,13.4,7.27,16.55,0,29.46-20,41.94-39.38,1.77-2.76,3.51-5.45,5.21-8,3.35,7.06,7,16.11,7.39,22.39a13.17,13.17,0,0,1-3.33,10.27,9.06,9.06,0,0,1-5.39,3.08c-3.78,0-3.78-1-3.8-1.76a3.72,3.72,0,0,1,.85-1.14A6.22,6.22,0,0,0,996,96.69c-.92.73-5.47,4.7-5.47,10.6,0,6.65,4.24,14.43,16.21,14.43,4.88,0,10.42-2.69,14.47-7a25.74,25.74,0,0,0,6.65-19.61c-1-14.47-13.09-35.78-13.6-36.68a6.21,6.21,0,0,0-5-3.12,6.13,6.13,0,0,0-5.36,2.51C1000,63,996.14,69,992.39,74.82c-9.67,15-21.71,33.69-31.48,33.69-2,0-2.41-.68-2.64-1.08-1.59-2.75-.81-10.28,2.86-16.7,3-5.15,5.84-10.47,8-14.53.43-.8.87-1.64,1.3-2.47,1.05-2,1.76-3.34,2.08-4a8.35,8.35,0,0,0,.58-1.67,6.06,6.06,0,0,0-10.67-5.37,47.56,47.56,0,0,0-2.6,4.49c-.35.66-.74,1.41-1.17,2.21-13.23,24.6-26,39.1-34.56,39.1-1.08,0-1.23-.26-1.4-.56-1.57-2.7-.56-10.8,3.11-17.19C931.59,80.64,938,69.58,938,69.58a6.27,6.27,0,0,0,.44-1.13,6.18,6.18,0,0,0-11.15-5.2q-2.67,4.41-5,8.44c-8.63,14.59-14.32,24.23-23.15,26.44-6.45,1.61-19.17.17-25.33-6.64-4.41-4.88-4.92-12.12-1.5-21.6,14.4-41.4,69.64-72.29,133.78-50,37.17,12.93,68,45.63,55,83.09-14.93,42.93-69.45,58.14-116.37,58.14h-2.34a85.73,85.73,0,0,1-15.22-1.51l-.88-.18a22.06,22.06,0,0,0-14.83,2L875.61,180c9.55-18.14,17-36.28,13.6-43.9a6.37,6.37,0,0,0-8.27-3.33,6.05,6.05,0,0,0-3.21,8c1,5.54-11.13,30.9-23.06,51.11a6.22,6.22,0,0,0,8.22,8.68l54.18-28.1a9.63,9.63,0,0,1,6.46-.89l1.2.24a97.84,97.84,0,0,0,17.4,1.72c51.76.55,113.24-16.61,130.6-66.47C1084.62,72.89,1066.93,27.93,1010.12,8.17Z" transform="translate(-250.96)"/></svg>