<?xml version="1.0" encoding="utf-8"?>
<!-- Generator: Adobe Illustrator 26.0.2, SVG Export Plug-In . SVG Version: 6.00 Build 0)  -->
<svg version="1.1" id="Calque_1" xmlns="http://www.w3.org/2000/svg" xmlns:xlink="http://www.w3.org/1999/xlink" x="0px" y="0px"
	 viewBox="0 0 1366 882.8" style="enable-background:new 0 0 1366 882.8;" xml:space="preserve">
<path d="M391.2,641.1H429c21.7,0,36.4,0.9,43.9,2.8c10.4,2.4,19.8,8.2,26.6,16.5c6.8,8.3,10.2,18.7,10.2,31.3c0,12.6-3.3,23-10,31.1
	c-6.7,8.2-15.9,13.7-27.7,16.6c-8.6,2-24.7,3.1-48.2,3.1h-13.6v88.2h-18.9V641.1z M410.2,659.5V724l32.2,0.4
	c12.9,0,22.3-1.2,28.3-3.5c5.8-2.2,10.8-6.2,14.2-11.5c6.9-10.7,6.9-24.5,0-35.2c-3.2-5.1-8-9-13.6-11.2c-5.6-2.2-14.8-3.3-27.6-3.3
	H410.2z"/>
<path d="M610.7,684.3c21.6,0,39.5,7.8,53.7,23.4c12.9,14.3,19.3,31.2,19.3,50.8c0,19.5-6.8,36.6-20.5,51.2
	c-13.6,14.7-31.2,22-52.6,22s-38.9-7.3-52.6-22c-13.6-14.6-20.4-31.7-20.4-51.2c0-19.5,6.4-36.4,19.3-50.6
	C571.2,692.2,589.1,684.3,610.7,684.3z M610.7,702c-14.9,0-27.7,5.5-38.5,16.6c-10.8,11.1-16.1,24.5-16.1,40.2
	c-0.1,10,2.5,19.8,7.4,28.5c4.6,8.5,11.5,15.6,19.9,20.3c17.1,9.5,37.8,9.5,54.9,0c8.4-4.8,15.2-11.8,19.8-20.3
	c4.8-8.7,7.3-18.5,7.3-28.5c0-15.7-5.4-29.1-16.1-40.2S625.6,702,610.7,702L610.7,702z"/>
<path d="M714.5,687.9h18.2v65.5c0,16,0.9,27,2.6,33c2.3,8.3,7.6,15.5,14.7,20.4c7.2,5,15.9,7.5,26.1,7.5c10.1,0,18.7-2.4,25.6-7.3
	c6.8-4.6,11.9-11.4,14.4-19.2c1.9-5.4,2.8-16.8,2.8-34.4v-65.5h18.4v68.9c0,19.3-2.3,33.9-6.8,43.7C826,810,818.9,818,810,823.4
	c-9,5.5-20.4,8.3-34,8.3s-25.1-2.8-34.3-8.2c-9-5.4-16.2-13.5-20.5-23.2c-4.5-9.9-6.8-24.9-6.8-44.8L714.5,687.9z"/>
<path d="M874.3,637h18.2v194.5h-18.2V637z"/>
<path d="M968.8,691.4c10.1-4.4,21.1-6.7,32.2-6.6c19.9,0,37,7.2,51.1,21.5c14.2,14.3,21.2,31.6,21.2,51.8c0,20.6-7,38-21.1,52.4
	c-14.1,14.4-31,21.6-50.8,21.6c-10.7,0.1-21.2-2.2-30.8-6.8c-9.4-4.6-17.9-11.5-25.4-20.8v78.3h-17.9V749.9
	c1.5-12.4,6.1-24.9,13.8-37.7C949.5,702.7,958.8,695.8,968.8,691.4z M960,718.4c-10.7,10.9-16.1,24.5-16.1,40.8
	c-0.1,10,2.3,19.9,7.2,28.7c4.8,8.6,11.9,15.6,20.5,20.3c8.6,4.9,18.3,7.5,28.1,7.5c9.6,0,19.1-2.6,27.4-7.5
	c8.6-5,15.7-12.3,20.5-21.1c5-8.7,7.6-18.5,7.6-28.5c0-10-2.6-19.8-7.6-28.4c-4.8-8.6-11.8-15.8-20.3-20.8c-8.5-5-18.1-7.6-27.9-7.5
	C983.9,702.1,970.8,707.6,960,718.4L960,718.4z"/>
<path d="M519.7,410.1c-3.7,20.7-10.2,40.7-19.4,59.6c-19.9,40.8-50.2,71.9-87.6,90.2C375,575.9,339,584,305.5,584
	c-31.2,0-60-6.9-85.5-20.6c-41-22-71.6-61.4-85.7-109.4c26.6,21.3,65.7,44.9,116.4,55c16.6,3.3,33.5,5,50.5,5
	c100.6,0,173.4-59.4,187-71.3C499.6,432.7,510.1,421.8,519.7,410.1 M527.7,390.8c-12.4,17.6-26.8,33.7-43,47.9
	c-9.9,8.7-82.1,70-183.5,70c-16.6,0-33.2-1.6-49.4-4.9c-58.5-11.7-100.8-41.2-126.7-64.6c11.9,56.8,45.4,103.6,92.4,128.9
	c21.1,11.3,50.3,21.3,88,21.3c30.8,0,67.2-6.6,109.4-24.6c38.6-18.8,69.8-50.8,90.2-92.7C517.5,446.6,525.1,419.1,527.7,390.8
	L527.7,390.8z"/>
<path d="M386.7,13.2c1.7,1.8,3.1,3.9,4.1,6.1c0.7,1.3,1.2,2.7,1.7,4.2c19.4,61.4,15.9,130.2-9.6,188.8l-0.1,0.3v0.1
	c-0.4,0.6-0.7,1.3-0.9,2c-15.5,34.5-38.2,63.9-65.9,85.1c-2-0.2-4.1-0.5-6.4-0.9c-13.1-2.1-25.9-5.9-38-11.3
	c44.9-46.2,76.4-93.9,93.8-141.9c13.7-37.8,21-74.4,21.8-108.9c0-1.3,0.1-2.5,0.1-3.8c0-1.3,0-2.5,0-3.8V27c0-0.7,0-1.5,0-2.2
	s0-1.4,0-2.2c0-0.5,0-1,0-1.5v-0.6c-0.1-2.4-0.2-4.7-0.3-7.3 M380.7,2.5c0,0.1,0,0.2,0,0.3c0.1,0.6,0.1,1.2,0.2,1.9
	c0.1,1.3,0.2,2.6,0.3,3.9c0,0.6,0.1,1.1,0.1,1.7c0,0.7,0.1,1.5,0.1,2.2c0.2,2.7,0.3,5.4,0.4,8.1c0,0.7,0.1,1.4,0.1,2.1s0,1.4,0,2.1
	s0,1.4,0,2.1v2.2c0,1.2,0,2.5,0,3.7s0,2.5-0.1,3.7c-0.7,29.8-6.3,65.3-21.5,107.3c-22.9,63.3-66.7,114.1-97.8,145.3
	c14.5,7.4,30.1,12.5,46.3,15c3,0.5,5.9,0.8,8.8,1.1c29.2-21.9,53.2-52.6,69.4-88.8c0.1-0.5,0.3-0.9,0.6-1.3c0.1-0.2,0.2-0.5,0.4-0.8
	c26-59.8,29.6-129.9,9.8-192.5c-0.5-1.7-1.2-3.3-1.9-4.9C392.7,10.5,387.3,5.3,380.7,2.5L380.7,2.5z"/>
<path d="M153.8,523.6c-21.9,58.1-34.3,119.3-36.9,181.4c-0.2,4.6-0.3,9.1-0.4,13.6c0.1-4.8,0.2-9.5,0.4-14.4
	c2.6-61.8,15-122.9,36.7-180.8C153.6,523.5,153.7,523.5,153.8,523.6z"/>
<path d="M527.7,389.9c0,0.3,0,0.6-0.1,0.9l0,0c-12.4,17.6-26.8,33.7-42.9,47.9c-11.5,10-106.2,90.4-232.9,65
	c-58.5-11.7-100.8-41.2-126.7-64.6c-0.1-0.3-0.1-0.6-0.2-1c-0.3-1.5-0.6-2.9-0.8-4.4c-4.6-24.9-4.9-50.5-1.1-75.5
	c0.1-0.8,0.3-1.6,0.4-2.4l0.1-0.2c0.1-0.8,0.2-1.6,0.4-2.4s0.3-1.8,0.5-2.7c0-0.1,0-0.2,0-0.3c0.1-0.7,0.3-1.5,0.4-2.2
	c0-0.1,0-0.2,0.1-0.2c0-0.1,0-0.3,0.1-0.4v-0.1c0.2-0.9,0.4-1.8,0.6-2.7c11.5-53.9,41.2-101.9,86.1-139c19-15.6,36.9-32.6,53.5-50.8
	c44.3-49,63.6-82.7,71.1-124c0.1-0.6,0.2-1.3,0.4-2v-0.2c0.1-0.7,0.3-1.5,0.4-2.2v-0.1c1.3-9.1,6.6-17.1,14.5-21.9
	c8.2-4.9,18.2-5.8,27.2-2.7c0.6,0.2,1.2,0.4,1.8,0.7c0.8,8.3,1.4,17.2,1.4,26.7c0,1.2,0,2.5,0,3.7s0,2.5-0.1,3.7
	C381,66.5,375.4,102,360.2,144c-22.9,63.3-66.7,114.1-97.8,145.3c-0.2-0.1-0.4-0.2-0.5-0.3c-6.6-3.4-12.9-7.2-19-11.4
	c-1.8-1.3-4.3-0.8-5.6,1c-1.3,1.8-0.8,4.3,1,5.6c20.6,14.5,44.3,24,69.1,28c8.2,1.3,16.5,1.9,24.8,1.9c47,0,83.6-20.7,98.5-30.7
	c1.8-1.2,2.3-3.7,1.1-5.6c-1.2-1.8-3.7-2.3-5.6-1.1c-14.6,9.8-50.6,30.1-96.7,29.3c26.6-21.9,48.5-50.9,63.9-84.6
	c11.4,0.1,22.8,1.4,34,4c29,6.7,52.5,21.8,70,44.7c16,21,26.3,48.1,29.7,78.5C528.6,362.4,528.8,376.2,527.7,389.9z"/>
<path d="M153.8,523.6c-21.9,58.1-34.3,119.3-36.9,181.4c-0.2,4.6-0.3,9.1-0.4,13.6c0.1-4.8,0.2-9.5,0.4-14.4
	c2.6-61.8,15-122.9,36.7-180.8C153.6,523.5,153.7,523.5,153.8,523.6z"/>
<path d="M155.5,534.4c27.6,33.4,65.9,56.2,108.5,64.4c-9,34.1-15.8,85.1-1.5,143c7.3,29.7,19.4,58.1,35.7,84H129.9
	c-3.9-22.8-6.4-45.7-7.6-68.8c-0.1-2.2-0.2-4.4-0.3-6.7v-0.4c-0.1-2.1-0.2-4.2-0.2-6.3c-0.1-2.6-0.1-5.2-0.1-7.9
	c0-2.4-0.1-4.8-0.1-7.2c0-1.7,0-3.5,0-5.2v-2.4v-1.7v-0.6c0.1-4.1,0.2-8.5,0.4-13.4C124.5,646.9,135.7,589.4,155.5,534.4
	 M153.7,523.7C131.8,581.8,119.3,643,116.8,705c-0.2,4.6-0.3,9.1-0.4,13.6v0.6c0,1.4,0,2.7,0,4c0,1.8,0,3.5,0,5.3c0,2.4,0,4.9,0,7.2
	c0,2.7,0.1,5.3,0.2,8c0,2.1,0.1,4.3,0.2,6.4v0.3c0.1,2.3,0.2,4.6,0.3,6.9c1.2,24.8,4,49.4,8.4,73.8h182.7
	c-18.8-27.6-32.4-58.2-40.4-90.6c-14.6-59.5-6.8-111.5,3-145.9C223.9,587.2,181.9,561.7,153.7,523.7L153.7,523.7z"/>
<path d="M117,757.2c1.2,24.8,4,49.4,8.4,73.8H8.4c-14.9-92.7-17-229.7,54.7-362.7c14.1-26.1,30.5-51,48.9-74.3
	c0,11.8,1,23.5,2.8,35.1c0.3,1.9,0.6,3.7,0.9,5.5c5.8,31.9,18.4,61.8,36.4,86.6c0.5,0.7,1,1.4,1.5,2.1c0.1,0.1,0.1,0.2,0.2,0.2
	C132,581.7,119.5,642.9,116.9,705c-0.2,4.6-0.3,9.1-0.4,13.6v0.6c0,1.4,0,2.7,0,4c0,1.8,0,3.5,0,5.3c0,2.4,0,4.9,0,7.2
	c0,2.7,0.1,5.3,0.2,8c0,2.1,0.1,4.3,0.2,6.4v0.3C116.8,752.7,116.9,755,117,757.2z"/>
<ellipse cx="408.1" cy="62.1" rx="17.2" ry="35.5"/>
<ellipse transform="matrix(0.2549 -0.967 0.967 0.2549 134.8347 509.6737)" cx="398.2" cy="167.3" rx="35.5" ry="17.2"/>
<ellipse transform="matrix(0.5 -0.866 0.866 0.5 -54.0337 438.157)" cx="352.4" cy="265.9" rx="35.5" ry="17.2"/>
<ellipse transform="matrix(0.7071 -0.7071 0.7071 0.7071 -215.1451 502.2869)" cx="498.7" cy="510.8" rx="35.5" ry="17.2"/>
<ellipse transform="matrix(0.9085 -0.4179 0.4179 0.9085 -202.6524 219.1712)" cx="399.2" cy="572.4" rx="35.5" ry="17.2"/>
<ellipse cx="178.8" cy="773.2" rx="17.2" ry="35.5"/>
<ellipse transform="matrix(0.9908 -0.135 0.135 0.9908 -101.8193 43.1436)" cx="267.2" cy="772.2" rx="17.2" ry="35.5"/>
<ellipse transform="matrix(3.141081e-02 -0.9995 0.9995 3.141081e-02 -480.6644 812.3234)" cx="178.8" cy="654.2" rx="35.5" ry="17.2"/>
<ellipse transform="matrix(0.9988 -4.954705e-02 4.954705e-02 0.9988 -32.5851 13.5164)" cx="256.3" cy="664" rx="17.2" ry="35.5"/>
<ellipse transform="matrix(4.292189e-02 -0.9991 0.9991 4.292189e-02 -314.4539 852.0535)" cx="287.5" cy="590.2" rx="17.2" ry="35.5"/>
<ellipse transform="matrix(0.5 -0.866 0.866 0.5 -392.4926 423.242)" cx="170.3" cy="551.5" rx="17.2" ry="35.5"/>
<ellipse transform="matrix(0.7071 -0.7071 0.7071 0.7071 -178.7753 482.6148)" cx="493.2" cy="457.1" rx="35.5" ry="17.2"/>
<ellipse transform="matrix(0.9085 -0.4179 0.4179 0.9085 -181.6086 210.5504)" cx="390" cy="520" rx="35.5" ry="17.2"/>
<ellipse transform="matrix(4.292189e-02 -0.9991 0.9991 4.292189e-02 -267.2925 789.3219)" cx="278.3" cy="534.2" rx="17.2" ry="35.5"/>
<ellipse transform="matrix(0.5 -0.866 0.866 0.5 -346.4474 386.0674)" cx="161.1" cy="493.1" rx="17.2" ry="35.5"/>
<path d="M1287.9,475.2c-84.3-29.3-157.3,12.5-176.7,68c-7.5,20.7-1.6,33.3,4.7,40.3c11.9,13.1,33.1,15,44.4,12.2
	c3.2-0.8,6.2-2.1,9-3.9c0.3,3,1.1,5.9,2.6,8.6c2.9,5.1,8.5,8.2,14.4,8c8.3,0,16.9-4.4,25.8-13.3c0.4,1.6,1.1,3.2,1.9,4.7
	c3.2,5.5,8.8,8.6,15.8,8.6c19.5,0,34.8-23.7,49.5-46.5c2.1-3.3,4.2-6.4,6.2-9.5c4,8.3,8.2,19,8.7,26.4c0.4,6.1-1.9,10-3.9,12.1
	c-2.6,2.7-5.4,3.6-6.4,3.6c-4.4,0-4.4-1.2-4.5-2.1c0.2-0.5,0.6-1,1-1.3c3.2-2.5,3.7-7.2,1.1-10.3c-2.5-3.2-7.2-3.7-10.3-1.1
	c-1.1,0.9-6.5,5.5-6.5,12.5c0,7.9,5,17,19.1,17c5.8,0,12.3-3.2,17.1-8.3c5.7-6.3,8.6-14.7,7.8-23.2c-1.2-17.1-15.5-42.3-16.1-43.3
	c-2-3.5-6.5-4.7-10-2.7c-0.9,0.5-1.7,1.2-2.3,2c-4.5,6.1-9.1,13.2-13.5,20.1c-11.4,17.8-25.6,39.8-37.2,39.8c-2.4,0-2.8-0.8-3.1-1.3
	c-1.9-3.2-1-12.2,3.4-19.7c3.5-6.1,6.9-12.4,9.4-17.2c0.5-1,1-1.9,1.5-2.9c1.2-2.3,2.1-4,2.5-4.7c0.3-0.6,0.5-1.3,0.7-2
	c1.1-3.8-1-7.8-4.8-8.9c-2.9-0.8-6,0.2-7.8,2.6c-1.1,1.7-2.1,3.5-3.1,5.3l-1.4,2.6c-15.6,29-30.7,46.2-40.8,46.2
	c-1.3,0-1.4-0.3-1.7-0.7c-1.8-3.2-0.7-12.8,3.7-20.3c6.8-12,14.4-25,14.4-25c2.1-3.5,0.9-8-2.6-10.1c-3.5-2.1-8-0.9-10.1,2.6l0,0
	c-2.1,3.5-4.1,6.8-6,10c-10.2,17.2-16.9,28.6-27.3,31.2c-7.6,1.9-22.6,0.2-29.9-7.8c-5.2-5.8-5.8-14.3-1.8-25.5
	c17-48.9,82.2-85.4,158-59c43.9,15.3,80.3,53.9,64.9,98.1c-17.6,50.7-82,68.7-137.4,68.7h-2.8c-6-0.1-12.1-0.7-18-1.8l-1-0.2
	c-5.9-1.3-12.1-0.4-17.5,2.4l-42.2,21.9c11.3-21.4,20.1-42.8,16.1-51.8c-1.6-3.8-6-5.5-9.8-3.9c-3.6,1.5-5.4,5.7-3.8,9.3
	c0,0.1,0,0.1,0.1,0.2c1.2,6.5-13.2,36.5-27.2,60.4c-2.1,3.5-0.9,8,2.6,10.1c1.1,0.7,2.4,1,3.7,1c1.2,0,2.3-0.3,3.4-0.8l64-33.2
	c2.3-1.2,5-1.6,7.6-1.1l1.4,0.3c6.8,1.3,13.7,1.9,20.6,2c61.1,0.7,133.7-19.6,154.2-78.5C1375.9,551.7,1355,498.5,1287.9,475.2z"/>
</svg>
