<svg id="Calque_1" data-name="Calque 1" xmlns="http://www.w3.org/2000/svg" viewBox="0 0 1366 882.91"><defs><style>.cls-1{fill:#fff;}.cls-2{fill:#ffad9e;}.cls-3{fill:#c00;}</style></defs><path class="cls-1" d="M391.3,642.6H429q32.63,0,43.87,2.81a48.86,48.86,0,0,1,26.6,16.5q10.23,12.4,10.23,31.33t-10,31.14Q489.65,736.73,472,741,459.07,744,423.78,744H410.23v88.25H391.3ZM410.23,661v64.45l32.22.39q19.32,0,28.33-3.52A29.14,29.14,0,0,0,485,710.83a32.54,32.54,0,0,0,0-35.23,28.51,28.51,0,0,0-13.62-11.26Q462.92,661,443.73,661Z" transform="translate(0 -1.4)"/><path class="cls-1" d="M610.75,685.83q32.36,0,53.72,23.4,19.31,21.48,19.31,50.77t-20.46,51.22q-20.48,21.93-52.57,21.93t-52.62-21.93q-20.4-21.93-20.4-51.22T557,709.36Q578.4,685.83,610.75,685.83Zm0,17.64q-22.38,0-38.49,16.63t-16.11,40.16a57.67,57.67,0,0,0,7.35,28.45,51.57,51.57,0,0,0,19.89,20.34,56.72,56.72,0,0,0,54.92,0,51.27,51.27,0,0,0,19.76-20.34,58,58,0,0,0,7.29-28.45q0-23.53-16.11-40.16T610.75,703.47Z" transform="translate(0 -1.4)"/><path class="cls-1" d="M714.6,689.41h18.16v65.48q0,24,2.56,33a36.7,36.7,0,0,0,14.7,20.4q10.88,7.49,26.09,7.48t25.58-7.29a37.12,37.12,0,0,0,14.45-19.18q2.82-8.06,2.82-34.4V689.41h18.41v68.93q0,29-6.84,43.67a51.77,51.77,0,0,1-20.4,22.89q-13.56,8.25-34,8.25t-34.27-8.25a50.93,50.93,0,0,1-20.46-23.14q-6.78-14.89-6.78-44.83Z" transform="translate(0 -1.4)"/><path class="cls-1" d="M874.46,638.51h18.16V833H874.46Z" transform="translate(0 -1.4)"/><path class="cls-1" d="M968.91,692.92a79.18,79.18,0,0,1,32.16-6.58q29.92,0,51.16,21.48t21.22,51.8q0,30.82-21.1,52.43t-50.77,21.61a69.53,69.53,0,0,1-30.82-6.84Q956.69,820,945.31,806v78.27h-17.9V751.43q2.3-18.54,13.81-37.72Q953.88,699.51,968.91,692.92ZM960.15,720Q944,736.35,944,760.77a58,58,0,0,0,7.16,28.71,52.11,52.11,0,0,0,20.47,20.33,56.48,56.48,0,0,0,28.13,7.49,53.63,53.63,0,0,0,27.43-7.49,54.65,54.65,0,0,0,20.46-21.1,57.45,57.45,0,0,0,7.61-28.45,56.61,56.61,0,0,0-7.54-28.39,55.23,55.23,0,0,0-20.27-20.79,54.23,54.23,0,0,0-28-7.48Q976.27,703.6,960.15,720Z" transform="translate(0 -1.4)"/><path class="cls-1" d="M527.7,392.28a232.87,232.87,0,0,1-22.58,81.28c-20.42,41.88-51.61,73.93-90.22,92.7-93.87,40-159.14,23.86-197.37,3.32-47-25.26-80.51-72.06-92.45-128.93C151,464,193.34,493.56,251.81,505.22c126.78,25.31,221.5-55,233-65.05A272.5,272.5,0,0,0,527.7,392.28Z" transform="translate(0 -1.4)"/><path class="cls-1" d="M387.87,215.84c-.11.25-.24.52-.35.78a3.83,3.83,0,0,0-.58,1.32c-16.16,36.22-40.14,66.91-69.4,88.85-2.9-.28-5.84-.66-8.81-1.11a155,155,0,0,1-46.27-15c31.07-31.22,74.9-82,97.8-145.34,15.2-42,20.81-77.5,21.52-107.31,0-1.25.06-2.5.07-3.73s0-2.48,0-3.69V28.42c0-.73,0-1.44,0-2.14s0-1.4,0-2.1,0-1.4-.06-2.09q-.11-4.15-.36-8.15c-.05-.74-.11-1.5-.14-2.23s-.09-1.16-.13-1.72c-.09-1.3-.2-2.61-.33-3.88,0-.65-.1-1.28-.16-1.9a2.48,2.48,0,0,0,0-.27,29.53,29.53,0,0,1,15.12,14.47,33.1,33.1,0,0,1,1.94,4.9C417.45,85.9,413.88,156.05,387.87,215.84Z" transform="translate(0 -1.4)"/><path class="cls-2" d="M153.79,525.1a584.84,584.84,0,0,0-36.94,181.37q-.27,6.87-.41,13.59c.07-4.75.21-9.53.41-14.39a584.17,584.17,0,0,1,36.74-180.82A1.69,1.69,0,0,0,153.79,525.1Z" transform="translate(0 -1.4)"/><path class="cls-1" d="M527.25,350.09c-3.39-30.41-13.66-57.55-29.66-78.52-17.53-22.95-41.1-38-70.07-44.72a159.41,159.41,0,0,0-34-3.95c-.83,1.82-1.67,3.63-2.54,5.41h5.92a149.56,149.56,0,0,1,29.41,3.75c27.73,6.41,50.29,20.81,67,42.74C508.77,295,518.67,321.26,522,350.68a207.23,207.23,0,0,1,.53,39.73,265.65,265.65,0,0,1-41.24,45.75c-13.06,11.46-83.18,68.64-180,68.64a248.41,248.41,0,0,1-48.41-4.8c-56.28-11.23-97.71-39.72-122.91-62.14-.23-1.17-.46-2.36-.68-3.52a221.87,221.87,0,0,1-1-73.83l.34-2.15v-.05l0-.22,0-.18c.11-.72.23-1.45.37-2.2v0l0-.06c.13-.82.29-1.65.45-2.5,0-.16.05-.32.07-.47q.18-1,.39-1.95v-.05l.18-.64v-.11l.07-.29v-.17c.09-.43.17-.87.28-1.34l.18-.85c11.23-52.68,40.35-99.71,84.23-136A519.63,519.63,0,0,0,269,159.84C314,110,333.68,75.63,341.44,33.22c.07-.36.15-.71.2-1.07s.11-.6.18-.9l0-.22,0-.21c.12-.71.25-1.44.36-2.15l0-.29a25.35,25.35,0,0,1,11.93-17.9A27,27,0,0,1,368,6.73a26.54,26.54,0,0,1,7.47,1c.66,7.54,1,15.22,1.05,22.84,0,1.19,0,2.4,0,3.63l0,.11c0,1.17,0,2.36-.05,3.57-.8,33.38-7.93,68.91-21.22,105.61-17.14,47.39-48.69,94.68-93.8,140.61L258,288.33c1.31.71,2.65,1.42,4,2.1l.52.26c31.06-31.21,74.9-82,97.81-145.34,15.19-42,20.81-77.49,21.5-107.3,0-1.24.07-2.5.09-3.73s0-2.49,0-3.7c0-9.51-.55-18.39-1.39-26.71a14.7,14.7,0,0,0-1.81-.71A32,32,0,0,0,368,1.4a32.39,32.39,0,0,0-16.58,4.52A30.59,30.59,0,0,0,337,27.8v.07c-.1.73-.24,1.47-.37,2.2l0,.16c-.12.64-.23,1.32-.35,2-7.59,41.37-26.89,75-71.17,124.06a514.52,514.52,0,0,1-53.54,50.85c-44.8,37.08-74.56,85.14-86.06,139-.19.94-.37,1.83-.57,2.74v.07a2,2,0,0,0-.07.41,1.89,1.89,0,0,1,0,.23c-.18.76-.32,1.51-.44,2.24,0,.1,0,.18,0,.26-.18.89-.34,1.8-.48,2.69s-.28,1.56-.41,2.34l0,.24c-.13.8-.25,1.61-.38,2.43A227.2,227.2,0,0,0,124,435.3c.27,1.46.55,2.94.85,4.38.08.32.13.65.2,1C151,464,193.35,493.55,251.81,505.23a252.72,252.72,0,0,0,49.46,4.9c101.37,0,173.59-61.27,183.5-70a273,273,0,0,0,42.93-47.88v0c0-.32,0-.6.07-.9A213.74,213.74,0,0,0,527.25,350.09Z" transform="translate(0 -1.4)"/><path class="cls-3" d="M153.79,525.1a584.84,584.84,0,0,0-36.94,181.37q-.27,6.87-.41,13.59c.07-4.75.21-9.53.41-14.39a584.17,584.17,0,0,1,36.74-180.82A1.69,1.69,0,0,0,153.79,525.1Z" transform="translate(0 -1.4)"/><path class="cls-1" d="M308.12,832.58H125.46a586.1,586.1,0,0,1-8.41-73.84c-.12-2.27-.22-4.57-.31-6.87v-.29c-.09-2.1-.14-4.22-.2-6.36-.07-2.64-.1-5.29-.14-8,0-2.39-.05-4.82-.05-7.25,0-1.73,0-3.49,0-5.27,0-1.34,0-2.68.06-4v-.63q.14-6.72.41-13.59A584.84,584.84,0,0,1,153.79,525.1a181,181,0,0,0,117,70.95c-9.82,34.44-17.65,86.43-3.05,145.91A279.94,279.94,0,0,0,308.12,832.58Z" transform="translate(0 -1.4)"/><path class="cls-1" d="M107.15,410.57c.47,7,1.24,14,2.31,20.9.3,1.91.63,3.77,1,5.68,5.94,32.64,18.84,63.33,37.29,88.72l.06.08a588.79,588.79,0,0,0-36.26,180.31c-.19,5-.33,9.47-.42,13.69v1.57l0,3.16c0,1.79,0,3.57,0,5.33,0,2.45,0,4.9.06,7.31,0,2.71.07,5.38.14,8,.06,2.13.11,4.24.2,6.34v.44c.09,2.31.18,4.62.31,6.87a595,595,0,0,0,7.39,68.24H12.94c-14-91-15.24-225,54.83-354.91a508.26,508.26,0,0,1,39.38-61.77M112,395.52a514.26,514.26,0,0,0-48.88,74.29C-8.66,602.82-6.51,739.9,8.39,832.58H125.46a586.1,586.1,0,0,1-8.41-73.84c-.12-2.27-.22-4.57-.31-6.87v-.29c-.09-2.1-.14-4.22-.2-6.36-.07-2.64-.1-5.29-.14-8,0-2.39-.05-4.82-.05-7.24q0-2.61,0-5.28c0-1.34,0-2.68.06-4v-.63q.14-6.72.41-13.59A584.84,584.84,0,0,1,153.79,525.1a1.69,1.69,0,0,1-.2-.25c-.52-.69-1-1.38-1.54-2.09-18-24.78-30.58-54.71-36.37-86.56-.33-1.83-.66-3.68-1-5.55A234.43,234.43,0,0,1,112,395.52Z" transform="translate(0 -1.4)"/><ellipse cx="408.16" cy="62.08" rx="17.19" ry="35.53"/><path class="cls-1" d="M408.16,28c9.49,0,17.19,15.91,17.19,35.53S417.65,99,408.16,99,391,83.11,391,63.49,398.66,28,408.16,28m0-5.33c-12.84,0-22.52,17.56-22.52,40.86s9.68,40.86,22.52,40.86,22.52-17.57,22.52-40.86S421,22.63,408.16,22.63Z" transform="translate(0 -1.4)"/><ellipse cx="398.18" cy="168.75" rx="35.53" ry="17.19" transform="translate(133.52 509.37) rotate(-75.23)"/><path class="cls-1" d="M405,134.12a8.62,8.62,0,0,1,2.2.28c9.18,2.42,12.56,19.76,7.56,38.73-4.61,17.49-14.73,30.26-23.48,30.26a8.54,8.54,0,0,1-2.19-.28c-9.18-2.42-12.57-19.77-7.57-38.74,4.61-17.48,14.73-30.25,23.48-30.25m0-5.34h0c-11.55,0-23.33,14.08-28.64,34.23-2.62,9.94-3.19,19.87-1.61,28,1.84,9.43,6.45,15.57,13,17.29a13.67,13.67,0,0,0,3.55.46c11.55,0,23.33-14.07,28.64-34.23,2.62-9.94,3.19-19.86,1.61-28-1.84-9.44-6.45-15.58-13-17.3a14.05,14.05,0,0,0-3.55-.46Z" transform="translate(0 -1.4)"/><ellipse cx="352.48" cy="267.31" rx="35.53" ry="17.19" transform="translate(-55.26 437.51) rotate(-60)"/><path class="cls-1" d="M365.58,235.36a9.27,9.27,0,0,1,4.67,1.18c8.22,4.75,6.93,22.37-2.88,39.36-8.15,14.12-19.62,23.36-28,23.36a9.21,9.21,0,0,1-4.67-1.18c-8.22-4.75-6.94-22.37,2.87-39.37,8.16-14.11,19.62-23.35,28-23.35m0-5.34h0c-10.68,0-23.48,10.22-32.6,26-11.65,20.17-12.05,40.22-.93,46.64a14.39,14.39,0,0,0,7.34,1.9c10.67,0,23.47-10.21,32.6-26,5.14-8.9,8.3-18.33,8.9-26.55.7-9.58-2.13-16.72-8-20.1a14.46,14.46,0,0,0-7.33-1.9Z" transform="translate(0 -1.4)"/><ellipse cx="498.81" cy="512.31" rx="35.53" ry="17.19" transform="translate(-216.16 501.36) rotate(-45)"/><path class="cls-1" d="M516.14,484.4a10.68,10.68,0,0,1,7.79,2.79c6.71,6.72.9,23.4-13,37.28-10,10-21.36,15.76-29.49,15.76a10.64,10.64,0,0,1-7.79-2.8c-6.71-6.71-.9-23.4,13-37.27,10-10,21.36-15.76,29.49-15.76m0-5.33h0c-9.83,0-22.58,6.64-33.26,17.32-7.27,7.27-12.76,15.55-15.47,23.34-3.16,9.08-2.27,16.7,2.5,21.47a15.91,15.91,0,0,0,11.56,4.36c9.83,0,22.58-6.64,33.26-17.32C522,521,527.49,512.68,530.2,504.9c3.16-9.08,2.27-16.71-2.5-21.48a15.9,15.9,0,0,0-11.56-4.35Z" transform="translate(0 -1.4)"/><ellipse cx="399.25" cy="573.81" rx="35.53" ry="17.19" transform="translate(-203.27 217.97) rotate(-24.7)"/><path class="cls-1" d="M416.28,552.26c7.49,0,13.19,2.25,15.24,6.7,4,8.63-7.26,22.27-25.09,30.47-8.61,4-17.2,5.93-24.21,5.93-7.49,0-13.2-2.25-15.25-6.7-4-8.63,7.27-22.27,25.09-30.47,8.62-4,17.2-5.93,24.22-5.93m0-5.33h0c-8.06,0-17.45,2.28-26.44,6.42-21.17,9.73-33.08,25.87-27.71,37.54,2.91,6.32,10,9.8,20.09,9.8,8,0,17.44-2.28,26.44-6.42C418,590,426,584.11,431.27,577.74c6.11-7.41,7.92-14.88,5.1-21-2.91-6.33-10-9.81-20.09-9.81Z" transform="translate(0 -1.4)"/><ellipse cx="178.81" cy="773.27" rx="17.19" ry="35.53"/><path class="cls-1" d="M178.79,739.14c9.5,0,17.2,15.9,17.21,35.52s-7.68,35.53-17.17,35.53h0c-9.5,0-17.2-15.89-17.21-35.51s7.68-35.53,17.17-35.54h0m0-5.33h0v0c-12.84,0-22.52,17.58-22.5,40.87s9.7,40.85,22.54,40.85,22.52-17.58,22.5-40.88-9.7-40.84-22.53-40.84Z" transform="translate(0 -1.4)"/><ellipse cx="267.22" cy="773.69" rx="17.19" ry="35.53" transform="translate(-102.06 41.79) rotate(-7.76)"/><path class="cls-1" d="M263.57,738.41c9,0,18.14,14.31,20.68,33,2.65,19.44-2.82,36.24-12.23,37.52a8.89,8.89,0,0,1-1.15.08c-9,0-18.14-14.31-20.68-33-2.65-19.44,2.83-36.24,12.23-37.52a8.89,8.89,0,0,1,1.15-.08m0-5.33h0a13.06,13.06,0,0,0-1.87.13c-12.72,1.73-19.94,20.44-16.79,43.52,3,21.77,13.88,37.57,26,37.57a13,13,0,0,0,1.87-.13c12.72-1.73,19.94-20.44,16.8-43.52-3-21.77-13.89-37.57-26-37.57Z" transform="translate(0 -1.4)"/><ellipse cx="178.81" cy="655.65" rx="35.53" ry="17.19" transform="translate(-482.13 812.38) rotate(-88.2)"/><path class="cls-1" d="M179.66,620.14h.27c9.49.3,16.68,16.44,16.06,36.05-.61,19.43-8.65,35-18,35h-.27c-9.48-.3-16.68-16.44-16.06-36,.61-19.43,8.65-35,18-35m0-5.33h0c-12.6,0-22.64,17.25-23.36,40.13-.32,10.28,1.35,20.08,4.7,27.61,3.91,8.78,9.78,13.73,16.53,13.94H178c12.6,0,22.64-17.26,23.36-40.14.32-10.27-1.35-20.08-4.7-27.61-3.91-8.77-9.78-13.73-16.53-13.94Z" transform="translate(0 -1.4)"/><ellipse cx="256.4" cy="665.49" rx="17.19" ry="35.53" transform="translate(-32.69 12.13) rotate(-2.84)"/><path class="cls-1" d="M255.06,630c9.31,0,17.55,15.33,18.51,34.64,1,19.6-5.92,35.86-15.41,36.34h-.42c-9.31,0-17.55-15.34-18.51-34.65-1-19.59,5.93-35.86,15.41-36.33h.42m0-5.33h-.68c-12.83.64-21.63,18.66-20.47,41.93,1.12,22.64,11.37,39.71,23.83,39.71l.69,0c12.82-.64,21.62-18.66,20.47-41.92-1.13-22.64-11.37-39.71-23.84-39.71Z" transform="translate(0 -1.4)"/><ellipse cx="287.54" cy="591.64" rx="17.19" ry="35.53" transform="translate(-315.89 852.11) rotate(-87.54)"/><path class="cls-1" d="M285.1,574.39c1,0,2.11,0,3.18.07,19.6.84,35.16,9.22,34.75,18.7-.38,9-14.9,15.72-33,15.72-1.05,0-2.12,0-3.19-.07-19.6-.84-35.16-9.21-34.75-18.7.38-9,14.9-15.72,33.05-15.72m0-5.33h0c-21.72,0-37.86,8.76-38.38,20.82-.55,12.83,16.58,23.26,39.85,24.26,1.14.05,2.29.07,3.42.07,21.71,0,37.85-8.76,38.37-20.82.55-12.83-16.58-23.26-39.85-24.26-1.14,0-2.29-.07-3.41-.07Z" transform="translate(0 -1.4)"/><ellipse cx="170.31" cy="553.01" rx="17.19" ry="35.53" transform="translate(-393.76 422.59) rotate(-60)"/><path class="cls-1" d="M152.24,529.83c7.52,0,17.19,2.82,26.66,8.29,17,9.81,26.92,24.43,22.18,32.65-2.1,3.64-6.72,5.41-12.7,5.41-7.52,0-17.19-2.82-26.67-8.28-17-9.82-26.91-24.43-22.17-32.66,2.1-3.63,6.72-5.41,12.7-5.41m0-5.33h0c-8.16,0-14.31,2.87-17.31,8.08-3.38,5.84-2.26,13.44,3.14,21.39,4.63,6.82,12.08,13.4,21,18.54,9.91,5.73,20.6,9,29.33,9,8.16,0,14.31-2.87,17.31-8.08,3.38-5.85,2.26-13.44-3.14-21.39-4.63-6.82-12.08-13.41-21-18.55-9.91-5.72-20.6-9-29.33-9Z" transform="translate(0 -1.4)"/><ellipse cx="493.24" cy="458.57" rx="35.53" ry="17.19" transform="translate(-179.79 481.68) rotate(-45)"/><path class="cls-1" d="M510.58,430.65a10.64,10.64,0,0,1,7.78,2.79c6.72,6.72.91,23.41-13,37.28-10,10-21.37,15.76-29.49,15.76a10.68,10.68,0,0,1-7.79-2.79c-6.71-6.72-.91-23.41,13-37.28,10-10,21.36-15.76,29.49-15.76m0-5.33h0c-9.83,0-22.58,6.64-33.26,17.32-7.27,7.27-12.76,15.56-15.47,23.34-3.16,9.08-2.27,16.71,2.5,21.48a15.9,15.9,0,0,0,11.56,4.35c9.83,0,22.58-6.63,33.26-17.32,16.47-16.47,22-35.74,13-44.82a15.94,15.94,0,0,0-11.56-4.35Z" transform="translate(0 -1.4)"/><ellipse cx="390.08" cy="521.43" rx="35.53" ry="17.19" transform="translate(-182.22 209.34) rotate(-24.7)"/><path class="cls-1" d="M407.11,499.88c7.49,0,13.2,2.25,15.25,6.7,4,8.63-7.27,22.27-25.09,30.47-8.62,4-17.2,5.93-24.22,5.93-7.49,0-13.19-2.25-15.24-6.7-4-8.63,7.26-22.27,25.09-30.47,8.61-4,17.2-5.93,24.21-5.93m0-5.33h0c-8.05,0-17.44,2.28-26.44,6.42-9.34,4.29-17.37,10.16-22.61,16.53-6.11,7.42-7.92,14.88-5.1,21,2.91,6.32,10.05,9.8,20.09,9.8,8.06,0,17.44-2.28,26.44-6.42,9.34-4.29,17.37-10.16,22.61-16.52,6.11-7.42,7.92-14.88,5.1-21-2.91-6.32-10-9.8-20.09-9.8Z" transform="translate(0 -1.4)"/><ellipse cx="278.37" cy="535.65" rx="17.19" ry="35.53" transform="translate(-268.73 789.37) rotate(-87.54)"/><path class="cls-1" d="M275.93,518.41q1.57,0,3.18.06c19.6.85,35.16,9.22,34.76,18.7-.39,9-14.91,15.72-33.05,15.72-1.05,0-2.11,0-3.19-.07-19.6-.84-35.16-9.21-34.75-18.7.38-9,14.9-15.71,33.05-15.71m0-5.34h0c-21.72,0-37.86,8.76-38.38,20.83-.29,6.74,4.21,13,12.68,17.51,7.25,3.91,16.91,6.3,27.18,6.74,1.13.05,2.28.07,3.41.07,21.72,0,37.86-8.75,38.37-20.82.55-12.82-16.58-23.25-39.85-24.25-1.14,0-2.29-.08-3.41-.08Z" transform="translate(0 -1.4)"/><ellipse cx="161.14" cy="494.53" rx="17.19" ry="35.53" transform="translate(-347.71 385.42) rotate(-60)"/><path class="cls-1" d="M143.07,471.36c7.52,0,17.19,2.82,26.67,8.29,17,9.81,26.92,24.43,22.17,32.65-2.1,3.64-6.72,5.41-12.69,5.41-7.53,0-17.2-2.82-26.67-8.29-17-9.81-26.92-24.43-22.18-32.65,2.11-3.64,6.73-5.41,12.7-5.41m0-5.33h0c-8.16,0-14.3,2.86-17.31,8.08-3.38,5.84-2.26,13.44,3.14,21.39,4.63,6.82,12.08,13.4,21,18.54,9.91,5.72,20.6,9,29.34,9,8.15,0,14.3-2.87,17.31-8.08,6.42-11.12-3.95-28.28-24.13-39.93-9.91-5.72-20.6-9-29.33-9Z" transform="translate(0 -1.4)"/><path class="cls-1" d="M1287.91,476.29c-84.32-29.34-157.37,12.5-176.69,68-7.47,20.7-1.55,33.32,4.73,40.27,11.87,13.14,33.09,15.05,44.38,12.24a33.29,33.29,0,0,0,9-3.87,21.56,21.56,0,0,0,2.58,8.59c3,5.14,8.08,8,14.36,8,8.33,0,16.89-4.44,25.77-13.31a20.25,20.25,0,0,0,1.89,4.72c3.22,5.54,8.84,8.59,15.83,8.59,19.55,0,34.79-23.65,49.53-46.52,2.1-3.26,4.15-6.43,6.16-9.48,4,8.35,8.22,19,8.72,26.45.42,6.12-1.91,10-3.93,12.13-2.57,2.75-5.4,3.64-6.37,3.64-4.45,0-4.45-1.2-4.48-2.08a4.37,4.37,0,0,1,1-1.34,7.34,7.34,0,1,0-9.2-11.45c-1.08.87-6.46,5.55-6.46,12.51,0,7.87,5,17,19.14,17,5.77,0,12.32-3.18,17.1-8.29a30.48,30.48,0,0,0,7.86-23.16c-1.16-17.09-15.47-42.26-16.07-43.33a7.37,7.37,0,0,0-6-3.68,7.27,7.27,0,0,0-6.34,3C1276,541,1271.4,548.14,1267,555c-11.42,17.73-25.64,39.79-37.18,39.79-2.38,0-2.84-.8-3.12-1.27-1.88-3.25-1-12.15,3.38-19.73,3.49-6.09,6.89-12.37,9.44-17.16.52-.95,1-1.94,1.55-2.91,1.23-2.35,2.07-4,2.45-4.7a9.19,9.19,0,0,0,.68-2,7.17,7.17,0,0,0-12.6-6.35c-.29.22-2.34,3.93-3.07,5.31l-1.38,2.61c-15.63,29-30.68,46.18-40.82,46.18-1.28,0-1.45-.3-1.65-.66-1.86-3.2-.66-12.76,3.67-20.3,6.84-12,14.37-25,14.37-25a7,7,0,0,0,.53-1.33,7.31,7.31,0,0,0-13.17-6.15c-2.11,3.47-4.08,6.8-6,10-10.18,17.24-16.91,28.62-27.34,31.23-7.61,1.9-22.64.21-29.92-7.84-5.2-5.76-5.81-14.32-1.77-25.52,17-48.89,82.25-85.37,158-59,43.9,15.27,80.29,53.88,64.9,98.13C1330.34,639,1266,657,1210.54,657h-2.77a101.27,101.27,0,0,1-18-1.78l-1-.22a26.15,26.15,0,0,0-17.51,2.38L1129,679.22c11.28-21.42,20.08-42.84,16.06-51.85a7.52,7.52,0,0,0-9.77-3.93,7.14,7.14,0,0,0-3.78,9.49c1.15,6.54-13.15,36.5-27.23,60.38a7.34,7.34,0,0,0,9.7,10.25l64-33.19a11.35,11.35,0,0,1,7.63-1.06l1.42.29a116,116,0,0,0,20.55,2c61.13.65,133.75-19.61,154.24-78.51C1375.9,552.73,1355,499.63,1287.91,476.29Z" transform="translate(0 -1.4)"/><path class="cls-1" d="M317.64,307c-2.9-.27-5.83-.65-8.79-1.11a155.11,155.11,0,0,1-46.26-15,4.35,4.35,0,0,1-.52-.27,164,164,0,0,1-19-11.4,4,4,0,1,0-4.59,6.6,165.88,165.88,0,0,0,69.11,28,159.69,159.69,0,0,0,24.81,1.93c47,0,83.54-20.66,98.47-30.67a4,4,0,1,0-4.47-6.68c-14.54,9.78-50.54,30.1-96.68,29.28" transform="translate(0 -1.4)"/></svg>