<svg id="Calque_1" data-name="Calque 1" xmlns="http://www.w3.org/2000/svg" viewBox="0 0 1076.24 353.3"><defs><style>.cls-1{fill:#0b86ac;}.cls-2{fill:#c00;}.cls-3{fill:#fff;}.cls-4{fill:#ffad9e;}.cls-5{fill:#900;}</style></defs><path class="cls-1" d="M251,148.65H282.9q27.62,0,37.14,2.39a41.39,41.39,0,0,1,22.53,14q8.65,10.51,8.66,26.53t-8.5,26.37q-8.5,10.46-23.44,14-10.94,2.6-40.82,2.6H267v74.71H251Zm16,15.6v54.57l27.28.32q16.35,0,24-3a24.69,24.69,0,0,0,12-9.75,27.58,27.58,0,0,0,0-29.83,24.12,24.12,0,0,0-11.53-9.53q-7.15-2.82-23.39-2.81Z"/><path class="cls-1" d="M436.77,185.25q27.39,0,45.48,19.82a62.16,62.16,0,0,1,16.35,43q0,24.81-17.33,43.37T436.77,310q-27.28,0-44.56-18.57t-17.27-43.37a62,62,0,0,1,16.35-42.87Q409.38,185.24,436.77,185.25Zm0,14.94q-18.94,0-32.59,14.08a47.08,47.08,0,0,0-13.65,34,48.82,48.82,0,0,0,6.23,24.09,43.68,43.68,0,0,0,16.84,17.22,48,48,0,0,0,46.51,0,43.46,43.46,0,0,0,16.72-17.22A49.09,49.09,0,0,0,483,248.27a47.08,47.08,0,0,0-13.65-34Q455.73,200.2,436.77,200.19Z"/><path class="cls-1" d="M524.69,188.28h15.38v55.44q0,20.37,2.16,27.94a31.08,31.08,0,0,0,12.46,17.27q9.19,6.33,22.09,6.33t21.65-6.17a31.45,31.45,0,0,0,12.24-16.24q2.39-6.83,2.38-29.13V188.28h15.59v58.37q0,24.57-5.79,37A43.94,43.94,0,0,1,605.58,303q-11.48,7-28.8,7t-29-7a43.22,43.22,0,0,1-17.33-19.6q-5.73-12.62-5.74-38Z"/><path class="cls-1" d="M660,145.19h15.38V309.88H660Z"/><path class="cls-1" d="M740,191.26a67,67,0,0,1,27.23-5.57q25.34,0,43.32,18.19a60.12,60.12,0,0,1,18,43.85q0,26.1-17.87,44.39t-43,18.3a58.89,58.89,0,0,1-26.1-5.79A64.31,64.31,0,0,1,720,287V353.3H704.87V240.8q1.95-15.7,11.7-31.94Q727.28,196.83,740,191.26Zm-7.42,22.9Q719,228,719,248.7A49.07,49.07,0,0,0,725,273a44.09,44.09,0,0,0,17.33,17.22,47.87,47.87,0,0,0,23.82,6.33,45.47,45.47,0,0,0,23.23-6.33,46.31,46.31,0,0,0,17.32-17.87,48.62,48.62,0,0,0,6.44-24.09,48,48,0,0,0-6.38-24,46.72,46.72,0,0,0-17.17-17.59,45.77,45.77,0,0,0-23.66-6.34A45,45,0,0,0,732.59,214.16Z"/><path class="cls-2" d="M1010.12,8.17c-71.4-24.84-133.25,10.58-149.6,57.57-6.32,17.52-1.31,28.21,4,34.09,10.06,11.12,28,12.75,37.58,10.36a28.2,28.2,0,0,0,7.64-3.27,18.39,18.39,0,0,0,2.19,7.27,13.45,13.45,0,0,0,12.16,6.75c7,0,14.3-3.75,21.82-11.26a17.16,17.16,0,0,0,1.6,4c2.72,4.69,7.48,7.27,13.4,7.27,16.55,0,29.46-20,41.94-39.38,1.77-2.76,3.51-5.45,5.21-8,3.35,7.06,7,16.11,7.39,22.39a13.17,13.17,0,0,1-3.33,10.27,9.06,9.06,0,0,1-5.39,3.08c-3.78,0-3.78-1-3.8-1.76a3.72,3.72,0,0,1,.85-1.14A6.22,6.22,0,0,0,996,96.69c-.92.73-5.47,4.7-5.47,10.6,0,6.65,4.24,14.43,16.21,14.43,4.88,0,10.42-2.69,14.47-7a25.74,25.74,0,0,0,6.65-19.61c-1-14.47-13.09-35.78-13.6-36.68a6.21,6.21,0,0,0-5-3.12,6.13,6.13,0,0,0-5.36,2.51C1000,63,996.14,69,992.39,74.82c-9.67,15-21.71,33.69-31.48,33.69-2,0-2.41-.68-2.64-1.08-1.59-2.75-.81-10.28,2.86-16.7,3-5.15,5.84-10.47,8-14.53.43-.8.87-1.64,1.3-2.47,1.05-2,1.76-3.34,2.08-4a8.35,8.35,0,0,0,.58-1.67,6.06,6.06,0,0,0-10.67-5.37,47.56,47.56,0,0,0-2.6,4.49c-.35.66-.74,1.41-1.17,2.21-13.23,24.6-26,39.1-34.56,39.1-1.08,0-1.23-.26-1.4-.56-1.57-2.7-.56-10.8,3.11-17.19C931.59,80.64,938,69.58,938,69.58a6.27,6.27,0,0,0,.44-1.13,6.18,6.18,0,0,0-11.15-5.2q-2.67,4.41-5,8.44c-8.63,14.59-14.32,24.23-23.15,26.44-6.45,1.61-19.17.17-25.33-6.64-4.41-4.88-4.92-12.12-1.5-21.6,14.4-41.4,69.64-72.29,133.78-50,37.17,12.93,68,45.63,55,83.09-14.93,42.93-69.45,58.14-116.37,58.14h-2.34a85.73,85.73,0,0,1-15.22-1.51l-.88-.18a22.06,22.06,0,0,0-14.83,2L875.61,180c9.55-18.14,17-36.28,13.6-43.9a6.37,6.37,0,0,0-8.27-3.33,6.05,6.05,0,0,0-3.21,8c1,5.54-11.13,30.9-23.06,51.11a6.22,6.22,0,0,0,8.22,8.68l54.18-28.1a9.63,9.63,0,0,1,6.46-.89l1.2.24a97.84,97.84,0,0,0,17.4,1.72c51.76.55,113.24-16.61,130.6-66.47C1084.62,72.89,1066.93,27.93,1010.12,8.17Z"/><path class="cls-3" d="M181.17,205.86c-1.52-13.61-6.17-25.83-13.4-35.3a54.59,54.59,0,0,0-31.94-20.41A72.12,72.12,0,0,0,122,148.4a122.65,122.65,0,0,0,3.55-83,14,14,0,0,0-1-2.59,16.28,16.28,0,0,0-9.22-8.26c-.41-.12-.81-.25-1.25-.37A17.39,17.39,0,0,0,100.75,56a16.46,16.46,0,0,0-7.83,11.81s0,0,0,.06c0,.28-.09.56-.12.84l0,.06c0,.28-.1.56-.13.81-3.11,17-11.15,31-29.63,51.42a214.37,214.37,0,0,1-22.56,21.44C20.63,158.78,7.51,180,2.43,203.84c-.09.4-.19.81-.28,1.21,0,.1,0,.22,0,.35-.09.34-.16.71-.22,1.06v.06c-.09.37-.15.78-.22,1.15l-.18,1v.09c-.07.38-.13.72-.19,1.09-.5,3.34-.84,6.67-1,10L0,225.71a105.52,105.52,0,0,0,1.18,15c.13.81.29,1.59.41,2.37a90.61,90.61,0,0,0,15.58,37l.66.91.09.09A77.65,77.65,0,0,0,39.51,301,78.45,78.45,0,0,0,68,311.53l3.46.47a84.68,84.68,0,0,0,11,.72h.38c15.23,0,31.44-3.62,48.27-10.79a.1.1,0,0,1,.06,0c17.23-8.38,31.16-22.65,40.23-41.29A102.53,102.53,0,0,0,181.7,218.8,92.93,92.93,0,0,0,181.17,205.86Zm-3.21,18a1.67,1.67,0,0,1,0,.4,98.83,98.83,0,0,1-9.66,34.78c-8.72,18-22.09,31.66-38.61,39.7C89.5,315.9,61.54,309,45.18,300.19,25.05,289.38,10.72,269.37,5.61,245a2.12,2.12,0,0,1-.06-.43c-.13-.63-.25-1.25-.38-1.87a96.8,96.8,0,0,1-.46-32.32c.06-.37.12-.71.15-1.06l0-.09c.06-.34.13-.65.19-1s.12-.78.19-1.15c0,0,0-.06,0-.12l.19-.94a.18.18,0,0,1,0-.12.29.29,0,0,1,0-.16v0c.06-.41.15-.78.22-1.18,4.92-23.06,17.66-43.63,36.86-59.49a223,223,0,0,0,22.9-21.78c19-21,27.21-35.37,30.45-53.1a8.22,8.22,0,0,0,.15-.84l0-.07c0-.31.1-.62.16-.93v0a13.07,13.07,0,0,1,6.2-9.38,14,14,0,0,1,11.66-1.16c.25.07.49.19.78.29,0,0,0,0,0,0a12.81,12.81,0,0,1,6.48,6.2,14,14,0,0,1,.81,2.09,119.31,119.31,0,0,1-4.18,82.42c-.06.09-.09.22-.15.31a2,2,0,0,0-.25.56,96.41,96.41,0,0,1-29.7,38c-1.25-.13-2.49-.28-3.77-.47a66.8,66.8,0,0,1-19.82-6.42l-.22-.12a75.53,75.53,0,0,1-8.13-4.86,1.7,1.7,0,0,0-2.4.4,1.73,1.73,0,0,0,.44,2.4,71.19,71.19,0,0,0,29.6,12,70,70,0,0,0,10.63.81c20.13,0,35.77-8.85,42.16-13.12A1.75,1.75,0,0,0,137,176a1.71,1.71,0,0,0-2.37-.47c-6.24,4.18-21.66,12.9-41.42,12.53a99.91,99.91,0,0,0,27.33-36.18,68.45,68.45,0,0,1,14.59,1.68,51.33,51.33,0,0,1,30,19.14c6.86,9,11.25,20.59,12.69,33.62A90.32,90.32,0,0,1,178,223.91Z"/><path class="cls-4" d="M177.82,224.56a99.48,99.48,0,0,1-9.65,34.78C159.43,277.26,146.08,291,129.56,299c-40.16,17.09-68.09,10.2-84.45,1.41C25,289.62,10.67,269.61,5.56,245.27a114.91,114.91,0,0,0,54.22,27.62c54.25,10.83,94.77-23.54,99.68-27.84A115.63,115.63,0,0,0,177.82,224.56Z"/><path class="cls-4" d="M127,114.48a117.39,117.39,0,0,1-6.8,29.2c-.68,1.82-1.41,3.61-2.17,5.39l-.15.33a2,2,0,0,0-.25.56c-6.91,15.5-17.17,28.64-29.7,38-1.24-.12-2.49-.28-3.76-.48a66.8,66.8,0,0,1-19.81-6.4c13.29-13.37,32.05-35.11,41.86-62.2,6.07-16.81,8.58-31.18,9.11-43.42a.28.28,0,0,0,0-.09c0-.82.07-1.62.09-2.42,0-.54,0-1.06,0-1.58,0-1.05,0-2.07,0-3.09V68c0-.31,0-.61,0-.91l0-.89c0-1.19-.09-2.35-.16-3.49,0-.32,0-.64-.06-1s0-.49,0-.73c0-.56-.09-1.11-.14-1.66,0-.27,0-.54-.08-.81a.49.49,0,0,0,0-.12,12.53,12.53,0,0,1,6.47,6.2,13.81,13.81,0,0,1,.84,2.09A119,119,0,0,1,127,114.48Z"/><path class="cls-2" d="M177.86,224.17c0,.12,0,.25,0,.38h0a115.63,115.63,0,0,1-18.36,20.49c-4.91,4.3-45.43,38.67-99.68,27.84A114.91,114.91,0,0,1,5.56,245.27h0c0-.14-.07-.27-.09-.41-.13-.62-.25-1.25-.36-1.88a96.73,96.73,0,0,1-.46-32.31c0-.35.11-.7.16-1l0-.1c.06-.34.11-.67.17-1l.21-1.14a.5.5,0,0,0,0-.12c.06-.32.12-.63.18-1a.18.18,0,0,0,0-.1,1.1,1.1,0,0,0,0-.16.06.06,0,0,0,0,0c.09-.39.16-.77.25-1.17,4.92-23,17.65-43.62,36.82-59.48a218.94,218.94,0,0,0,22.91-21.76c19-21,27.2-35.38,30.45-53.08,0-.28.09-.57.15-.85v-.07l.16-.94v0a13.11,13.11,0,0,1,6.19-9.37,13.93,13.93,0,0,1,11.65-1.15c.26.08.51.18.78.29.32,3.09.52,6.35.58,9.81v.12c0,1,0,2,0,3.09,0,.52,0,1,0,1.58,0,.8-.05,1.6-.09,2.42a.28.28,0,0,1,0,.09c-.53,12.24-3,26.61-9.11,43.42-9.81,27.09-28.57,48.83-41.86,62.2l-.22-.13A69.07,69.07,0,0,1,56,176.11a1.72,1.72,0,0,0-2,2.82,70.85,70.85,0,0,0,29.58,12,67.68,67.68,0,0,0,10.62.83c20.13,0,35.77-8.84,42.17-13.13a1.72,1.72,0,0,0-1.92-2.85c-6.24,4.18-21.65,12.88-41.4,12.53a100.39,100.39,0,0,0,27.34-36.19A67.69,67.69,0,0,1,135,153.78a51.25,51.25,0,0,1,30,19.13c6.85,9,11.24,20.6,12.69,33.6A89.7,89.7,0,0,1,177.86,224.17Z"/><ellipse class="cls-5" cx="126.68" cy="83.88" rx="7.36" ry="15.2"/><ellipse class="cls-5" cx="122.41" cy="128.92" rx="15.2" ry="7.36" transform="translate(-33.45 214.43) rotate(-75.23)"/><ellipse class="cls-5" cx="102.86" cy="171.09" rx="15.2" ry="7.36" transform="translate(-96.74 174.62) rotate(-60)"/><ellipse class="cls-5" cx="165.46" cy="275.92" rx="15.2" ry="7.36" transform="translate(-146.64 197.82) rotate(-45)"/><ellipse class="cls-5" cx="122.87" cy="302.24" rx="15.2" ry="7.36" transform="translate(-115.07 79.01) rotate(-24.7)"/><ellipse class="cls-5" cx="75.07" cy="309.86" rx="7.36" ry="15.2" transform="translate(-237.73 371.56) rotate(-87.54)"/><ellipse class="cls-5" cx="24.91" cy="293.34" rx="7.36" ry="15.2" transform="translate(-241.58 168.24) rotate(-60)"/><ellipse class="cls-5" cx="163.08" cy="252.93" rx="15.2" ry="7.36" transform="translate(-131.08 189.4) rotate(-45)"/><ellipse class="cls-5" cx="118.94" cy="279.83" rx="15.2" ry="7.36" transform="translate(-106.06 75.32) rotate(-24.7)"/><ellipse class="cls-5" cx="71.15" cy="285.91" rx="7.36" ry="15.2" transform="translate(-217.55 344.72) rotate(-87.54)"/><ellipse class="cls-5" cx="20.99" cy="268.32" rx="7.36" ry="15.2" transform="translate(-221.88 152.33) rotate(-60)"/></svg>