<svg id="Calque_1" data-name="Calque 1" xmlns="http://www.w3.org/2000/svg" viewBox="0 0 825.28 353.3"><defs><style>.cls-1{fill:#0b86ac;}.cls-2{fill:#c00;}</style></defs><path class="cls-1" d="M540.72,148.65h31.95q27.6,0,37.14,2.39a41.37,41.37,0,0,1,22.52,14Q641,175.52,641,191.53t-8.5,26.37q-8.5,10.46-23.44,14-10.93,2.6-40.82,2.6H556.75v74.71h-16Zm16,15.6v54.57l27.29.32q16.35,0,24-3a24.64,24.64,0,0,0,12-9.75,27.53,27.53,0,0,0,0-29.83,24.07,24.07,0,0,0-11.53-9.53q-7.15-2.82-23.39-2.81Z" transform="translate(-540.72)"/><path class="cls-1" d="M726.53,185.25q27.4,0,45.48,19.82a62.16,62.16,0,0,1,16.35,43q0,24.81-17.32,43.37T726.53,310q-27.28,0-44.55-18.57T664.7,248.05a62,62,0,0,1,16.36-42.87Q699.14,185.24,726.53,185.25Zm0,14.94q-18.94,0-32.59,14.08a47.11,47.11,0,0,0-13.64,34,48.81,48.81,0,0,0,6.22,24.09,43.74,43.74,0,0,0,16.84,17.22,48,48,0,0,0,46.51,0,43.48,43.48,0,0,0,16.73-17.22,49.19,49.19,0,0,0,6.17-24.09,47.08,47.08,0,0,0-13.65-34Q745.48,200.2,726.53,200.19Z" transform="translate(-540.72)"/><path class="cls-1" d="M814.46,188.28h15.37v55.44q0,20.37,2.17,27.94a31,31,0,0,0,12.45,17.27q9.21,6.33,22.09,6.33t21.66-6.17a31.49,31.49,0,0,0,12.23-16.24q2.39-6.83,2.38-29.13V188.28h15.6v58.37q0,24.57-5.8,37A43.94,43.94,0,0,1,895.34,303q-11.48,7-28.8,7t-29-7a43.28,43.28,0,0,1-17.33-19.6q-5.73-12.62-5.73-38Z" transform="translate(-540.72)"/><path class="cls-1" d="M949.81,145.19h15.37V309.88H949.81Z" transform="translate(-540.72)"/><path class="cls-1" d="M1029.77,191.26a67,67,0,0,1,27.24-5.57q25.34,0,43.31,18.19a60.12,60.12,0,0,1,18,43.85q0,26.1-17.86,44.39t-43,18.3a58.89,58.89,0,0,1-26.1-5.79A64.18,64.18,0,0,1,1009.8,287V353.3H994.64V240.8q2-15.7,11.69-31.94Q1017.06,196.83,1029.77,191.26Zm-7.41,22.9q-13.65,13.86-13.65,34.54a49,49,0,0,0,6.07,24.31,44.06,44.06,0,0,0,17.32,17.22,47.9,47.9,0,0,0,23.82,6.33,45.47,45.47,0,0,0,23.23-6.33,46.31,46.31,0,0,0,17.32-17.87,48.63,48.63,0,0,0,6.45-24.09,48,48,0,0,0-6.39-24,46.77,46.77,0,0,0-17.16-17.59,45.79,45.79,0,0,0-23.66-6.34A45,45,0,0,0,1022.36,214.16Z" transform="translate(-540.72)"/><path class="cls-2" d="M1299.88,8.17c-71.39-24.84-133.24,10.58-149.59,57.57-6.33,17.52-1.32,28.21,4,34.09,10.06,11.12,28,12.75,37.58,10.36a28.13,28.13,0,0,0,7.65-3.27,18.22,18.22,0,0,0,2.18,7.27,13.48,13.48,0,0,0,12.16,6.75c7.06,0,14.3-3.75,21.82-11.26a17.16,17.16,0,0,0,1.6,4c2.72,4.69,7.49,7.27,13.41,7.27,16.54,0,29.45-20,41.93-39.38,1.78-2.76,3.51-5.45,5.22-8,3.34,7.06,7,16.11,7.38,22.39a13.17,13.17,0,0,1-3.33,10.27,9,9,0,0,1-5.39,3.08c-3.77,0-3.77-1-3.8-1.76a3.72,3.72,0,0,1,.85-1.14,6.22,6.22,0,0,0-7.79-9.69c-.91.73-5.47,4.7-5.47,10.6,0,6.65,4.25,14.43,16.21,14.43,4.88,0,10.43-2.69,14.48-7a25.81,25.81,0,0,0,6.65-19.61c-1-14.47-13.09-35.78-13.61-36.68a6.22,6.22,0,0,0-10.4-.61c-3.82,5.19-7.7,11.21-11.45,17-9.68,15-21.71,33.69-31.48,33.69-2,0-2.41-.68-2.65-1.08-1.59-2.75-.81-10.28,2.87-16.7,2.95-5.15,5.83-10.47,8-14.53.43-.8.87-1.64,1.31-2.47l2.08-4a7.77,7.77,0,0,0,.57-1.67,6.06,6.06,0,0,0-10.67-5.37,49.89,49.89,0,0,0-2.6,4.49c-.35.66-.74,1.41-1.17,2.21-13.23,24.6-26,39.1-34.56,39.1-1.08,0-1.22-.26-1.4-.56-1.57-2.7-.55-10.8,3.11-17.19,5.8-10.12,12.17-21.18,12.17-21.18a5.71,5.71,0,0,0,.45-1.13,6.18,6.18,0,0,0-11.15-5.2c-1.79,2.94-3.46,5.76-5,8.44-8.62,14.59-14.32,24.23-23.15,26.44-6.44,1.61-19.17.17-25.33-6.64-4.41-4.88-4.92-12.12-1.5-21.6,14.4-41.4,69.64-72.29,133.78-50,37.17,12.93,68,45.63,55,83.09-14.93,42.93-69.44,58.14-116.37,58.14H1232a85.73,85.73,0,0,1-15.22-1.51l-.88-.18a22.06,22.06,0,0,0-14.83,2L1165.37,180c9.55-18.14,17-36.28,13.6-43.9a6.37,6.37,0,0,0-8.27-3.33,6.06,6.06,0,0,0-3.21,8c1,5.54-11.13,30.9-23,51.11a6.21,6.21,0,0,0,8.21,8.68l54.18-28.1a9.66,9.66,0,0,1,6.47-.89l1.2.24a97.75,97.75,0,0,0,17.4,1.72c51.75.55,113.24-16.61,130.59-66.47C1374.38,72.89,1356.69,27.93,1299.88,8.17Z" transform="translate(-540.72)"/></svg>