<svg id="Calque_1" data-name="Calque 1" xmlns="http://www.w3.org/2000/svg" viewBox="0 0 1366 885.71"><defs><style>.cls-1{fill:#0b86ac;}.cls-2{fill:#ffad9e;}.cls-3{fill:#c00;}.cls-4{fill:#fff;}.cls-5{fill:#900;}</style></defs><path class="cls-1" d="M397,645.42H434.5q32.42,0,43.6,2.8a48.56,48.56,0,0,1,26.45,16.4q10.17,12.33,10.17,31.15t-10,31q-10,12.27-27.52,16.47-12.86,3-47.94,3H415.81V834H397Zm18.82,18.31V727.8l32,.39q19.18,0,28.16-3.5a28.89,28.89,0,0,0,14.11-11.44,32.36,32.36,0,0,0,0-35A28.35,28.35,0,0,0,476.58,667q-8.4-3.3-27.46-3.3Z"/><path class="cls-1" d="M615.16,688.39q32.16,0,53.4,23.27,19.2,21.36,19.2,50.47t-20.35,50.92q-20.34,21.81-52.25,21.81t-52.32-21.81q-20.28-21.79-20.28-50.92t19.2-50.35Q583,688.4,615.16,688.39Zm0,17.55q-22.24,0-38.27,16.52t-16,39.93a57.34,57.34,0,0,0,7.31,28.28A51.24,51.24,0,0,0,588,810.89a56.33,56.33,0,0,0,54.61,0,50.93,50.93,0,0,0,19.64-20.22,57.71,57.71,0,0,0,7.25-28.28q0-23.4-16-39.93T615.16,705.94Z"/><path class="cls-1" d="M718.4,692h18.05v65.1q0,23.9,2.54,32.8a36.52,36.52,0,0,0,14.63,20.28q10.8,7.44,25.93,7.43T805,810.32a37,37,0,0,0,14.37-19.07q2.79-8,2.79-34.2V692h18.31v68.53q0,28.86-6.8,43.42a51.61,51.61,0,0,1-20.28,22.75q-13.47,8.21-33.82,8.21t-34.07-8.21a50.71,50.71,0,0,1-20.35-23q-6.74-14.8-6.73-44.56Z"/><path class="cls-1" d="M877.32,641.35h18.06V834.73H877.32Z"/><path class="cls-1" d="M971.21,695.45a78.71,78.71,0,0,1,32-6.55q29.74,0,50.86,21.36t21.1,51.49q0,30.64-21,52.13t-50.47,21.48a69,69,0,0,1-30.64-6.8q-14-6.79-25.3-20.66v77.81H930V753.61q2.28-18.43,13.73-37.5Q956.28,702,971.21,695.45Zm-8.7,26.89q-16,16.27-16,40.55a57.7,57.7,0,0,0,7.11,28.55A51.84,51.84,0,0,0,974,811.65a56.15,56.15,0,0,0,28,7.44,53.33,53.33,0,0,0,27.27-7.44,54.38,54.38,0,0,0,20.34-21,57.2,57.2,0,0,0,7.57-28.28,56.44,56.44,0,0,0-7.5-28.23,55,55,0,0,0-20.16-20.66,53.78,53.78,0,0,0-27.78-7.44Q978.53,706.06,962.51,722.34Z"/><path class="cls-2" d="M532.59,396.57a231.43,231.43,0,0,1-22.44,80.79c-20.3,41.65-51.32,73.51-89.7,92.17-93.31,39.71-158.21,23.72-196.21,3.29-46.76-25.1-80-71.63-91.91-128.16,25.77,23.21,67.87,52.59,126,64.19,126,25.16,220.2-54.68,231.6-64.68A270.14,270.14,0,0,0,532.59,396.57Z"/><path class="cls-2" d="M393.58,221.16l-.34.77a3.83,3.83,0,0,0-.58,1.32c-16.06,36-39.91,66.51-69,88.32-2.88-.27-5.8-.65-8.75-1.1a154.36,154.36,0,0,1-46-14.89c30.89-31,74.46-81.56,97.22-144.49,15.11-41.76,20.7-77,21.4-106.68,0-1.24.05-2.48.07-3.71s0-2.46,0-3.67v-2.2c0-.72,0-1.42,0-2.12s0-1.39,0-2.09,0-1.39-.06-2.07c-.07-2.76-.2-5.46-.36-8.11-.05-.74-.11-1.49-.14-2.21s-.09-1.16-.13-1.72c-.09-1.29-.2-2.59-.32-3.85-.06-.65-.11-1.28-.16-1.89a1.26,1.26,0,0,0,0-.27,29.37,29.37,0,0,1,15,14.39,34.88,34.88,0,0,1,1.93,4.86C423,92,419.44,161.72,393.58,221.16Z"/><path class="cls-2" d="M160.88,528.61a581.14,581.14,0,0,0-36.73,180.31q-.27,6.83-.41,13.5c.07-4.72.21-9.47.41-14.3a580.6,580.6,0,0,1,36.53-179.77A1.64,1.64,0,0,0,160.88,528.61Z"/><path class="cls-3" d="M532.66,395.65c0,.3,0,.59-.07.9v0a270.14,270.14,0,0,1-42.67,47.6c-11.4,10-105.56,89.84-231.6,64.68-58.12-11.6-100.22-41-126-64.19-.07-.33-.13-.65-.2-1-.29-1.44-.57-2.9-.85-4.34a226.22,226.22,0,0,1-1.06-75.09c.13-.81.25-1.62.38-2.41l.05-.23c.13-.78.26-1.55.4-2.34s.31-1.79.49-2.67a2.13,2.13,0,0,0,0-.25c.13-.74.27-1.48.44-2.24a1.89,1.89,0,0,1,.05-.23,1.76,1.76,0,0,1,.07-.4v-.07c.2-.9.38-1.78.58-2.72,11.42-53.56,41-101.35,85.55-138.2a510.45,510.45,0,0,0,53.22-50.55c44-48.78,63.2-82.21,70.75-123.34.13-.65.23-1.32.36-2l0-.16c.13-.72.25-1.46.36-2.18v-.07c1.55-9.44,6.66-17.16,14.41-21.76a32.43,32.43,0,0,1,27.07-2.7c.59.2,1.19.43,1.8.7.83,8.27,1.33,17.11,1.37,26.57,0,1.21,0,2.43,0,3.67s0,2.47-.07,3.71c-.7,29.63-6.29,64.92-21.4,106.68C343.37,214,299.8,264.55,268.91,295.58a4.35,4.35,0,0,1-.52-.27A163.74,163.74,0,0,1,249.49,284a4,4,0,1,0-4.55,6.56,164.65,164.65,0,0,0,68.73,27.82,157.94,157.94,0,0,0,24.67,1.93c46.78,0,83.1-20.55,98-30.51a4,4,0,0,0-4.45-6.63c-14.48,9.71-50.28,29.94-96.17,29.13,26.47-21.74,48.26-50.58,63.52-84.1A157.86,157.86,0,0,1,433,232.11c28.8,6.68,52.23,21.65,69.65,44.45,15.9,20.86,26.11,47.84,29.5,78.06A212,212,0,0,1,532.66,395.65Z"/><path class="cls-3" d="M160.88,528.61a581.14,581.14,0,0,0-36.73,180.31q-.27,6.83-.41,13.5c.07-4.72.21-9.47.41-14.3a580.6,580.6,0,0,1,36.53-179.77A1.64,1.64,0,0,0,160.88,528.61Z"/><path class="cls-4" d="M540.08,353.74c-3.55-31.67-14.3-60-31.08-82-18.57-24.31-43.52-40.27-74.19-47.38a163.59,163.59,0,0,0-32.19-4.07C427.68,160.05,430.74,90,410.93,27.34a39.48,39.48,0,0,0-2.4-6A37.68,37.68,0,0,0,387.1,2.21c-1-.32-1.93-.63-2.9-.88A40.61,40.61,0,0,0,353.29,5.6C343.46,11.45,337,21.18,335.08,33c0,0,0,.07,0,.11-.11.67-.21,1.33-.32,2l0,.14c-.11.63-.21,1.27-.32,1.9-7.24,39.53-25.9,71.9-68.82,119.43a501.73,501.73,0,0,1-52.4,49.74c-45.94,38-76.45,87.36-88.25,142.67-.22.95-.41,1.91-.6,2.83,0,.25-.1.5-.14.77-.18.83-.34,1.66-.49,2.51v.14c-.18.88-.35,1.76-.49,2.65s-.29,1.6-.41,2.39l0,.24c-.14.84-.27,1.67-.4,2.52q-1.78,11.61-2.39,23.21a519.65,519.65,0,0,0-56.27,83.58C-9.6,605.68-6.5,745.53,9,838.94a4,4,0,0,0,3.94,3.35H322a4,4,0,0,0,3.24-6.34,270.81,270.81,0,0,1-43.3-93.64c-14.26-58.07-6.39-108.79,3.26-142.06a206.69,206.69,0,0,0,25.6,1.64h.86c35.34,0,73-8.43,112.07-25a.65.65,0,0,0,.16-.09c40.06-19.43,72.39-52.59,93.48-95.89a238.58,238.58,0,0,0,24-97.1A215.45,215.45,0,0,0,540.08,353.74Zm-266,390.46a278.34,278.34,0,0,0,40.17,90.09h-298C1.52,742.15-.63,605.87,70.7,473.64a510.94,510.94,0,0,1,48.59-73.85,231.75,231.75,0,0,0,2.76,34.92c.28,1.86.61,3.7.93,5.52,5.77,31.66,18.27,61.41,36.17,86,.5.71,1,1.39,1.53,2.07a1.64,1.64,0,0,0,.2.26,180,180,0,0,0,116.28,70.53C267.39,633.38,259.61,685.07,274.13,744.2ZM532.66,395.65c0,.3,0,.59-.07.9v0a231.43,231.43,0,0,1-22.44,80.79c-20.3,41.65-51.32,73.51-89.7,92.17-93.31,39.71-158.21,23.72-196.21,3.29-46.76-25.1-80-71.63-91.91-128.16-.07-.33-.13-.65-.2-1-.29-1.44-.57-2.9-.85-4.34a226.22,226.22,0,0,1-1.06-75.09c.13-.81.25-1.62.38-2.41l.05-.23c.13-.78.26-1.55.4-2.34s.31-1.79.49-2.67a2.13,2.13,0,0,0,0-.25c.13-.74.27-1.48.44-2.24a1.89,1.89,0,0,1,.05-.23,1.76,1.76,0,0,1,.07-.4v-.07c.2-.9.38-1.78.58-2.72,11.42-53.56,41-101.35,85.55-138.2a510.45,510.45,0,0,0,53.22-50.55c44-48.78,63.2-82.21,70.75-123.34.13-.65.23-1.32.36-2l0-.16c.13-.72.25-1.46.36-2.18v-.07c1.55-9.44,6.66-17.16,14.41-21.76a32.43,32.43,0,0,1,27.07-2.7c.59.2,1.19.43,1.8.7l.09,0a29.37,29.37,0,0,1,15,14.39,34.88,34.88,0,0,1,1.93,4.86c19.68,62.23,16.13,132-9.73,191.41l-.34.77a3.83,3.83,0,0,0-.58,1.32c-16.06,36-39.91,66.51-69,88.32-2.88-.27-5.8-.65-8.75-1.1a154.36,154.36,0,0,1-46-14.89,4.35,4.35,0,0,1-.52-.27A163.74,163.74,0,0,1,249.49,284a4,4,0,1,0-4.55,6.56,164.65,164.65,0,0,0,68.73,27.82,157.94,157.94,0,0,0,24.67,1.93c46.78,0,83.1-20.55,98-30.51a4,4,0,0,0-4.45-6.63c-14.48,9.71-50.28,29.94-96.17,29.13,26.47-21.74,48.26-50.58,63.52-84.1A157.86,157.86,0,0,1,433,232.11c28.8,6.68,52.23,21.65,69.65,44.45,15.9,20.86,26.11,47.84,29.5,78.06A212,212,0,0,1,532.66,395.65Z"/><path class="cls-2" d="M314.3,834.29H132.71a583.41,583.41,0,0,1-8.36-73.41c-.13-2.25-.21-4.54-.31-6.83v-.29c-.09-2.09-.14-4.19-.19-6.32-.08-2.63-.11-5.26-.15-7.92,0-2.38,0-4.8,0-7.21,0-1.73,0-3.47,0-5.24l.06-4v-.63q.14-6.67.41-13.5a581.14,581.14,0,0,1,36.73-180.31,180,180,0,0,0,116.28,70.53c-9.77,34.24-17.55,85.93-3,145.06A278.34,278.34,0,0,0,314.3,834.29Z"/><path class="cls-3" d="M124.35,760.88a583.41,583.41,0,0,0,8.36,73.41H16.32C1.52,742.15-.63,605.87,70.7,473.64a510.94,510.94,0,0,1,48.59-73.85,231.75,231.75,0,0,0,2.76,34.92c.28,1.86.61,3.7.93,5.52,5.77,31.66,18.27,61.41,36.17,86,.5.71,1,1.39,1.53,2.07a1.64,1.64,0,0,0,.2.26,581.14,581.14,0,0,0-36.73,180.31q-.27,6.83-.41,13.5v.63l-.06,4c0,1.77,0,3.51,0,5.24,0,2.41,0,4.83,0,7.21,0,2.66.07,5.29.15,7.92.05,2.13.1,4.23.19,6.32v.29C124.14,756.34,124.22,758.63,124.35,760.88Z"/><ellipse class="cls-5" cx="413.75" cy="69.7" rx="17.09" ry="35.32"/><ellipse class="cls-5" cx="403.83" cy="174.35" rx="35.32" ry="17.09" transform="translate(132.32 520.41) rotate(-75.23)"/><ellipse class="cls-5" cx="358.4" cy="272.33" rx="35.32" ry="17.09" transform="translate(-56.64 446.55) rotate(-60)"/><ellipse class="cls-5" cx="503.87" cy="515.9" rx="35.32" ry="17.09" transform="translate(-217.21 507.39) rotate(-45)"/><ellipse class="cls-5" cx="404.89" cy="577.03" rx="35.32" ry="17.09" transform="translate(-204.1 222.02) rotate(-24.7)"/><ellipse class="cls-5" cx="185.75" cy="776.71" rx="17.09" ry="35.32"/><ellipse class="cls-5" cx="273.64" cy="775.74" rx="17.09" ry="35.32" transform="translate(-102.28 44.07) rotate(-7.76)"/><ellipse class="cls-5" cx="185.75" cy="658.39" rx="35.32" ry="17.09" transform="translate(-478.15 823.37) rotate(-88.2)"/><ellipse class="cls-5" cx="262.88" cy="668.18" rx="17.09" ry="35.32" transform="translate(-32.81 13.86) rotate(-2.84)"/><ellipse class="cls-5" cx="293.84" cy="594.75" rx="17.09" ry="35.32" transform="translate(-312.98 862.79) rotate(-87.54)"/><ellipse class="cls-5" cx="177.3" cy="556.35" rx="17.09" ry="35.32" transform="translate(-393.17 431.72) rotate(-60)"/><ellipse class="cls-5" cx="498.34" cy="462.46" rx="35.32" ry="17.09" transform="translate(-181.05 487.83) rotate(-45)"/><ellipse class="cls-5" cx="395.78" cy="524.96" rx="35.32" ry="17.09" transform="translate(-183.17 213.45) rotate(-24.7)"/><ellipse class="cls-5" cx="284.73" cy="539.09" rx="17.09" ry="35.32" transform="translate(-266.09 800.42) rotate(-87.54)"/><ellipse class="cls-5" cx="168.18" cy="498.22" rx="17.09" ry="35.32" transform="translate(-347.38 394.76) rotate(-60)"/><path class="cls-3" d="M1288.37,480.47c-83.83-29.17-156.45,12.42-175.65,67.59-7.43,20.58-1.55,33.13,4.69,40,11.81,13.06,32.91,15,44.13,12.17a33.47,33.47,0,0,0,9-3.84,21.42,21.42,0,0,0,2.56,8.53c3,5.12,8,7.93,14.29,7.93,8.27,0,16.78-4.41,25.61-13.23a20,20,0,0,0,1.88,4.69c3.2,5.51,8.79,8.54,15.74,8.54,19.43,0,34.58-23.5,49.24-46.24,2.08-3.24,4.12-6.39,6.12-9.42,3.93,8.3,8.17,18.92,8.67,26.29.41,6.08-1.9,9.92-3.9,12.06-2.56,2.73-5.37,3.62-6.34,3.62-4.43,0-4.43-1.19-4.46-2.07a4.38,4.38,0,0,1,1-1.33,7.3,7.3,0,1,0-9.15-11.38c-1.07.86-6.42,5.51-6.42,12.44,0,7.81,5,16.94,19,16.94,5.74,0,12.24-3.16,17-8.24a30.29,30.29,0,0,0,7.81-23c-1.15-17-15.37-42-16-43.08a7.3,7.3,0,0,0-12.21-.7c-4.49,6.08-9,13.15-13.45,20-11.35,17.62-25.49,39.55-37,39.55-2.37,0-2.83-.79-3.1-1.26-1.87-3.23-1-12.08,3.36-19.61,3.46-6.06,6.85-12.3,9.39-17.06l1.53-2.9c1.23-2.33,2.06-3.93,2.44-4.67a10.44,10.44,0,0,0,.68-2,7.12,7.12,0,0,0-12.53-6.31,59.94,59.94,0,0,0-3.06,5.27c-.4.78-.87,1.65-1.36,2.59-15.54,28.88-30.5,45.91-40.58,45.91-1.28,0-1.45-.3-1.65-.65-1.84-3.18-.65-12.69,3.65-20.19,6.8-11.88,14.29-24.86,14.29-24.87a6.83,6.83,0,0,0,.52-1.32,7.26,7.26,0,0,0-13.09-6.11c-2.1,3.45-4,6.76-5.91,9.91-10.13,17.13-16.82,28.45-27.18,31-7.57,1.9-22.51.21-29.75-7.79-5.17-5.73-5.78-14.24-1.76-25.36,16.91-48.62,81.77-84.88,157.08-58.68,43.65,15.18,79.82,53.56,64.52,97.56-17.53,50.4-81.54,68.26-136.63,68.26-.92,0-1.84,0-2.75,0a100.14,100.14,0,0,1-17.87-1.76l-1-.21a25.91,25.91,0,0,0-17.41,2.36l-42,21.76c11.22-21.3,20-42.59,16-51.55a7.49,7.49,0,0,0-9.72-3.9,7.1,7.1,0,0,0-3.76,9.43c1.15,6.51-13.07,36.29-27.07,60a7.3,7.3,0,0,0,6.28,11,7.16,7.16,0,0,0,3.36-.82l63.62-33a11.28,11.28,0,0,1,7.59-1l1.41.28a115.5,115.5,0,0,0,20.43,2c60.77.64,133-19.5,153.34-78.06C1375.84,556.46,1355.07,503.67,1288.37,480.47Z"/><path class="cls-4" d="M323.69,311.64c-2.83-.26-5.69-.64-8.59-1.08A151.74,151.74,0,0,1,269.93,296a5.19,5.19,0,0,1-.51-.27,159,159,0,0,1-18.53-11.13,4,4,0,0,0-5.48,1,3.91,3.91,0,0,0,1,5.46,162,162,0,0,0,67.48,27.32,155.75,155.75,0,0,0,24.23,1.89c45.92,0,81.58-20.18,96.15-29.95a3.92,3.92,0,1,0-4.36-6.52c-14.21,9.54-49.35,29.39-94.41,28.59"/></svg>