<svg id="Calque_1" data-name="Calque 1" xmlns="http://www.w3.org/2000/svg" viewBox="0 0 147.8 133.76"><defs><style>.cls-1{fill:#c00;}</style></defs><path class="cls-1" d="M549,187.3c-47.44-16.51-88.54,7-99.4,38.25-4.21,11.65-.88,18.75,2.65,22.66,6.69,7.39,18.63,8.47,25,6.88a18.53,18.53,0,0,0,5.07-2.17,12.13,12.13,0,0,0,1.46,4.83,8.93,8.93,0,0,0,8.08,4.49c4.68,0,9.5-2.5,14.5-7.49a11.12,11.12,0,0,0,1.06,2.65,9.82,9.82,0,0,0,8.91,4.84c11,0,19.57-13.31,27.86-26.17,1.18-1.84,2.33-3.62,3.47-5.33,2.22,4.69,4.62,10.7,4.9,14.88a8.69,8.69,0,0,1-2.21,6.82,6,6,0,0,1-3.58,2.05c-2.51,0-2.51-.68-2.52-1.17a2.47,2.47,0,0,1,.56-.76,4.13,4.13,0,0,0-5.18-6.44c-.6.49-3.63,3.12-3.63,7,0,4.43,2.82,9.59,10.77,9.59,3.24,0,6.93-1.79,9.62-4.66a17.18,17.18,0,0,0,4.42-13c-.65-9.62-8.7-23.78-9-24.38a4.15,4.15,0,0,0-3.35-2.07,4.07,4.07,0,0,0-3.56,1.67c-2.55,3.45-5.12,7.45-7.62,11.31-6.42,10-14.42,22.38-20.91,22.38-1.35,0-1.6-.44-1.76-.71-1.06-1.83-.54-6.84,1.9-11.1,2-3.42,3.88-7,5.31-9.66.29-.53.58-1.09.87-1.63.7-1.32,1.17-2.23,1.38-2.65a5.15,5.15,0,0,0,.39-1.11,4,4,0,0,0-7.09-3.57,31.69,31.69,0,0,0-1.73,3c-.23.44-.49.93-.78,1.46-8.79,16.35-17.26,26-23,26-.72,0-.82-.17-.93-.36-1-1.8-.37-7.19,2.06-11.43,3.85-6.72,8.09-14.07,8.09-14.07a5.27,5.27,0,0,0,.3-.75,4.11,4.11,0,0,0-7.41-3.46c-1.19,1.95-2.3,3.83-3.35,5.61-5.73,9.69-9.52,16.1-15.38,17.57-4.29,1.07-12.74.11-16.84-4.42-2.92-3.24-3.27-8-1-14.35,9.57-27.51,46.27-48,88.89-33.21,24.71,8.59,45.18,30.32,36.52,55.21C572.87,278.84,536.64,289,505.46,289h-1.55a57.1,57.1,0,0,1-10.12-1l-.58-.12a14.67,14.67,0,0,0-9.86,1.34l-23.74,12.31c6.35-12.05,11.3-24.1,9-29.17a4.24,4.24,0,0,0-5.5-2.21,4,4,0,0,0-2.13,5.34c.65,3.68-7.4,20.53-15.32,34a4.13,4.13,0,0,0,3.56,6.23,4,4,0,0,0,1.9-.47l36-18.67a6.43,6.43,0,0,1,4.3-.59l.79.16a64.83,64.83,0,0,0,11.57,1.14c34.39.37,75.24-11,86.77-44.17C598.5,230.31,586.74,200.43,549,187.3Z" transform="translate(-445.13 -181.87)"/></svg>