<svg width="525" height="583" viewBox="0 0 525 583" fill="none" xmlns="http://www.w3.org/2000/svg">
<path d="M6.54384 126.334C19.9736 121.993 33.9326 119.502 48.0351 118.931C50.4737 118.931 97.2631 117.458 129.544 138.229C162.667 159.509 148.316 183.42 191.789 281.961C224.298 355.643 233.895 345.977 254.018 400.519C257.526 410.291 261.614 422.308 273.316 431.641C296.123 449.886 325.754 437.009 359.912 449.676C380.333 457.254 407.807 493.674 409.649 496.832C422.175 518.235 528.123 555.655 524.912 563.69C351.526 563.198 64.3684 583.286 -109 582.777L6.54384 126.334Z" fill="#4C5E5D"/>
<path d="M115.316 96.9669V136.475L26.649 130.808V109.072L39.7369 106.844V92.8092L46.6491 81.1955L52.0876 79.9676V61.6873C52.0876 61.6873 53.4036 55.7577 58.5966 55.7577C63.7895 55.7577 65.1755 61.1961 65.1755 61.1961V78.7394L79.0001 75.7747V42.9334H85.0702L81.3158 24.2848C81.2766 24.0906 81.2813 23.8903 81.3295 23.6981C81.3776 23.5058 81.4679 23.3267 81.594 23.1738C81.72 23.0209 81.8785 22.898 82.058 22.814C82.2375 22.7301 82.4334 22.6873 82.6316 22.6885H88.6316V6.37316H90.386C89.778 5.94307 89.3225 5.3307 89.0856 4.62461C88.8488 3.91853 88.8428 3.15536 89.0685 2.44562C89.2942 1.73587 89.7397 1.11638 90.3408 0.67672C90.942 0.237062 91.6674 0 92.4122 0C93.1569 0 93.8826 0.237062 94.4837 0.67672C95.0849 1.11638 95.5304 1.73587 95.756 2.44562C95.9817 3.15536 95.9758 3.91853 95.7389 4.62461C95.502 5.3307 95.0466 5.94307 94.4385 6.37316H96.1929V22.6885H102.088C102.303 22.6803 102.517 22.7243 102.712 22.817C102.907 22.9098 103.076 23.0484 103.205 23.2209C103.335 23.3934 103.42 23.5947 103.455 23.8075C103.489 24.0203 103.472 24.2384 103.403 24.4429L98.4561 43.0036H102.123V94.8618L115.316 96.9669Z" fill="#4C5E5D"/>
</svg>
