<svg width="2170" height="447" viewBox="0 0 2170 447" fill="none" xmlns="http://www.w3.org/2000/svg">
<path d="M670.672 150.377C601.824 166.112 480.474 206.332 332.991 207.51C196.454 208.607 83.7039 167.628 63.8579 136.697C153.309 140.688 244.397 132.027 340.295 132.426C418.451 132.756 485.123 133.624 549.311 136.697C581.27 138.194 654.827 142.255 670.672 150.377Z" fill="#B6E0DE"/>
<path d="M739.249 138.014L786.425 197.562L670.681 150.367C654.836 142.245 581.28 138.184 549.321 136.657C485.133 133.584 418.461 132.666 340.304 132.386C244.407 131.987 153.319 140.618 63.9175 136.657C98.1914 108 211.919 68.568 319.002 66.0835C333.44 65.7442 347.937 65.6943 362.415 65.9039C387.48 53.3558 414.653 45.558 442.557 42.9049C434.485 44.9504 429.207 54.0502 429.816 59.0092C430.564 65.1256 434.316 67.1511 441.161 69.5059C535.741 76.6201 621.84 93.1534 672.926 111.074C694.878 107.751 718.545 105.007 743.769 103.211C762.987 101.834 781.376 101.146 798.837 100.966L739.249 138.014Z" fill="#B6E0DE"/>
<path d="M1609.59 107.472C1540.74 123.207 1419.39 163.427 1271.91 164.605C1135.37 165.702 1022.62 124.723 1002.78 93.7919C1092.23 97.783 1183.31 89.1222 1279.21 89.5214C1357.37 89.8506 1424.04 90.7187 1488.23 93.7919C1520.19 95.2886 1593.74 99.3495 1609.59 107.472Z" fill="#B6E0DE"/>
<path d="M1678.17 95.109L1725.34 154.657L1609.6 107.462C1593.75 99.3396 1520.2 95.2786 1488.24 93.752C1424.05 90.6788 1357.38 89.7608 1279.22 89.4815C1183.32 89.0824 1092.24 97.7132 1002.83 93.752C1037.11 65.0956 1150.84 25.6631 1257.92 23.1786C1272.36 22.8393 1286.85 22.7894 1301.33 22.999C1326.4 10.4509 1353.57 2.65306 1381.47 0C1373.4 2.04546 1368.12 11.1453 1368.73 16.1043C1369.48 22.2207 1373.23 24.2462 1380.08 26.601C1474.66 33.7152 1560.76 50.2485 1611.84 68.1688C1633.79 64.8461 1657.46 62.1022 1682.69 60.3062C1701.9 58.9293 1720.29 58.2408 1737.75 58.0612L1678.17 95.109Z" fill="#B6E0DE"/>
<path d="M798.389 227.206C729.541 242.941 608.191 283.162 460.708 284.339C324.171 285.437 211.421 244.458 191.575 213.526C281.026 217.517 372.114 208.857 468.012 209.256C546.168 209.585 612.84 210.453 677.028 213.526C708.987 215.023 782.544 219.084 798.389 227.206Z" fill="#0ABDC4"/>
<path d="M866.966 214.843L914.142 274.391L798.398 227.196C782.554 219.074 708.997 215.013 677.038 213.486C612.85 210.413 546.178 209.495 468.021 209.216C372.124 208.817 281.036 217.448 191.635 213.486C225.908 184.83 339.636 145.397 446.719 142.913C461.157 142.574 475.654 142.524 490.132 142.733C515.197 130.185 542.37 122.387 570.274 119.734C562.202 121.78 556.924 130.88 557.533 135.839C558.281 141.955 562.033 143.981 568.878 146.335C663.458 153.45 749.557 169.983 800.643 187.903C822.595 184.581 846.262 181.837 871.486 180.041C890.704 178.664 909.093 177.975 926.554 177.796L866.966 214.843Z" fill="#0ABDC4"/>
<path d="M1306.26 187.295C1237.41 203.03 1116.06 243.25 968.58 244.428C832.043 245.525 719.293 204.546 699.448 173.615C788.899 177.606 879.987 168.945 975.884 169.344C1054.04 169.674 1120.71 170.542 1184.9 173.615C1216.86 175.112 1290.42 179.173 1306.26 187.295Z" fill="#0ABDC4"/>
<path d="M1374.84 174.932L1422.01 234.48L1306.27 187.285C1290.43 179.163 1216.87 175.102 1184.91 173.575C1120.72 170.502 1054.05 169.584 975.894 169.304C879.997 168.905 788.909 177.536 699.507 173.575C733.781 144.919 847.509 105.486 954.591 103.002C969.029 102.662 983.527 102.612 998.005 102.822C1023.07 90.2739 1050.24 82.4761 1078.15 79.823C1070.07 81.8685 1064.8 90.9683 1065.41 95.9273C1066.15 102.044 1069.91 104.069 1076.75 106.424C1171.33 113.538 1257.43 130.072 1308.52 147.992C1330.47 144.669 1354.13 141.925 1379.36 140.129C1398.58 138.752 1416.97 138.064 1434.43 137.884L1374.84 174.932Z" fill="#0ABDC4"/>
<path d="M2041.63 179.312C1972.78 195.047 1851.43 235.268 1703.95 236.445C1567.41 237.543 1454.66 196.564 1434.82 165.633C1524.27 169.624 1615.36 160.963 1711.25 161.362C1789.41 161.691 1856.08 162.559 1920.27 165.633C1952.23 167.129 2025.79 171.19 2041.63 179.312Z" fill="#0ABDC4"/>
<path d="M2110.21 166.95L2157.38 226.498L2041.64 179.302C2025.8 171.18 1952.24 167.119 1920.28 165.593C1856.09 162.52 1789.42 161.602 1711.26 161.322C1615.37 160.923 1524.28 169.554 1434.88 165.593C1469.15 136.936 1582.88 97.5038 1689.96 95.0193C1704.4 94.68 1718.9 94.6301 1733.37 94.8397C1758.44 82.2916 1785.61 74.4938 1813.52 71.8407C1805.44 73.8862 1800.17 82.986 1800.77 87.945C1801.52 94.0614 1805.27 96.0869 1812.12 98.4417C1906.7 105.556 1992.8 122.089 2043.89 140.009C2065.84 136.687 2089.5 133.943 2114.73 132.147C2133.95 130.77 2152.33 130.081 2169.8 129.902L2110.21 166.95Z" fill="#0ABDC4"/>
<path d="M1130.65 272.106C1061.8 287.841 940.454 328.062 792.971 329.239C656.434 330.337 543.684 289.358 523.838 258.427C613.289 262.418 704.377 253.757 800.275 254.156C878.431 254.485 945.103 255.353 1009.29 258.427C1041.25 259.923 1114.81 263.984 1130.65 272.106Z" fill="#B6E0DE"/>
<path d="M1199.23 259.744L1246.4 319.292L1130.66 272.096C1114.82 263.974 1041.26 259.913 1009.3 258.387C945.113 255.313 878.441 254.395 800.284 254.116C704.387 253.717 613.299 262.348 523.897 258.387C558.171 229.73 671.899 190.298 778.982 187.813C793.419 187.474 807.917 187.424 822.395 187.634C847.46 175.086 874.633 167.288 902.537 164.635C894.465 166.68 889.187 175.78 889.796 180.739C890.544 186.855 894.296 188.881 901.141 191.236C995.721 198.35 1081.82 214.883 1132.91 232.803C1154.86 229.481 1178.53 226.737 1203.75 224.941C1222.97 223.564 1241.36 222.875 1258.82 222.696L1199.23 259.744Z" fill="#B6E0DE"/>
<path d="M606.814 353.925C537.966 369.66 416.616 409.881 269.133 411.058C132.596 412.156 19.846 371.177 0 340.245C89.4515 344.236 180.539 335.576 276.437 335.975C354.593 336.304 421.265 337.172 485.453 340.245C517.412 341.742 590.969 345.803 606.814 353.925Z" fill="#B6E0DE"/>
<path d="M675.391 341.562L722.567 401.11L606.823 353.915C590.979 345.793 517.422 341.732 485.463 340.205C421.275 337.132 354.603 336.214 276.446 335.935C180.549 335.536 89.4612 344.167 0.0595703 340.205C34.3335 311.549 148.061 272.116 255.144 269.632C269.582 269.293 284.079 269.243 298.557 269.452C323.622 256.904 350.795 249.106 378.699 246.453C370.627 248.499 365.349 257.599 365.958 262.558C366.706 268.674 370.458 270.7 377.303 273.054C471.883 280.169 557.982 296.702 609.068 314.622C631.02 311.3 654.687 308.556 679.911 306.76C699.129 305.383 717.518 304.694 734.979 304.515L675.391 341.562Z" fill="#B6E0DE"/>
<path d="M1065.79 364.9C996.948 380.636 875.597 420.856 728.114 422.034C591.577 423.131 478.827 382.152 458.981 351.221C548.433 355.212 639.521 346.551 735.418 346.95C813.574 347.28 880.247 348.148 944.434 351.221C976.393 352.718 1049.95 356.779 1065.79 364.9Z" fill="#0ABDC4"/>
<path d="M1134.37 352.538L1181.55 412.086L1065.8 364.891C1049.96 356.769 976.403 352.708 944.444 351.181C880.256 348.108 813.584 347.19 735.428 346.91C639.53 346.511 548.442 355.142 459.041 351.181C493.315 322.525 607.042 283.092 714.125 280.608C728.563 280.268 743.061 280.218 757.538 280.428C782.604 267.88 809.776 260.082 837.681 257.429C829.609 259.474 824.33 268.574 824.939 273.533C825.687 279.65 829.439 281.675 836.284 284.03C930.864 291.144 1016.96 307.677 1068.05 325.598C1090 322.275 1113.67 319.531 1138.89 317.735C1158.11 316.358 1176.5 315.67 1193.96 315.49L1134.37 352.538Z" fill="#0ABDC4"/>
<path d="M1911.92 241.175C1843.07 256.91 1721.72 297.131 1574.24 298.308C1437.7 299.406 1324.95 258.427 1305.1 227.495C1394.56 231.487 1485.64 222.826 1581.54 223.225C1659.7 223.554 1726.37 224.422 1790.56 227.495C1822.52 228.992 1896.07 233.053 1911.92 241.175Z" fill="#B6E0DE"/>
<path d="M1980.5 228.812L2027.67 288.36L1911.93 241.165C1896.08 233.043 1822.53 228.982 1790.57 227.455C1726.38 224.382 1659.71 223.464 1581.55 223.185C1485.65 222.786 1394.57 231.417 1305.16 227.455C1339.44 198.799 1453.17 159.367 1560.25 156.882C1574.69 156.543 1589.18 156.493 1603.66 156.702C1628.73 144.154 1655.9 136.357 1683.8 133.703C1675.73 135.749 1670.45 144.849 1671.06 149.808C1671.81 155.924 1675.56 157.95 1682.41 160.304C1776.99 167.419 1863.09 183.952 1914.17 201.872C1936.12 198.55 1959.79 195.806 1985.02 194.01C2004.23 192.633 2022.62 191.944 2040.08 191.765L1980.5 228.812Z" fill="#B6E0DE"/>
<path d="M1562.69 300.045C1493.85 315.78 1372.5 356 1225.01 357.178C1088.48 358.275 975.725 317.296 955.879 286.365C1045.33 290.356 1136.42 281.695 1232.32 282.094C1310.47 282.424 1377.14 283.292 1441.33 286.365C1473.29 287.862 1546.85 291.923 1562.69 300.045Z" fill="#0ABDC4"/>
<path d="M1631.27 287.682L1678.45 347.23L1562.7 300.035C1546.86 291.913 1473.3 287.852 1441.34 286.325C1377.15 283.252 1310.48 282.334 1232.33 282.054C1136.43 281.655 1045.34 290.286 955.939 286.325C990.213 257.669 1103.94 218.236 1211.02 215.752C1225.46 215.412 1239.96 215.362 1254.44 215.572C1279.5 203.024 1306.67 195.226 1334.58 192.573C1326.51 194.618 1321.23 203.718 1321.84 208.677C1322.59 214.794 1326.34 216.819 1333.18 219.174C1427.76 226.288 1513.86 242.822 1564.95 260.742C1586.9 257.419 1610.57 254.675 1635.79 252.879C1655.01 251.502 1673.4 250.814 1690.86 250.634L1631.27 287.682Z" fill="#0ABDC4"/>
<path d="M1479.88 389.845C1411.03 405.58 1289.68 445.801 1142.2 446.978C1005.66 448.076 892.908 407.097 873.062 376.165C962.514 380.157 1053.6 371.496 1149.5 371.895C1227.66 372.224 1294.33 373.092 1358.52 376.165C1390.47 377.662 1464.03 381.723 1479.88 389.845Z" fill="#B6E0DE"/>
<path d="M1548.45 377.483L1595.63 437.03L1479.89 389.835C1464.04 381.713 1390.48 377.652 1358.53 376.126C1294.34 373.052 1227.67 372.134 1149.51 371.855C1053.61 371.456 962.524 380.087 873.122 376.126C907.396 347.469 1021.12 308.037 1128.21 305.552C1142.64 305.213 1157.14 305.163 1171.62 305.373C1196.68 292.824 1223.86 285.027 1251.76 282.374C1243.69 284.419 1238.41 293.519 1239.02 298.478C1239.77 304.594 1243.52 306.62 1250.37 308.975C1344.95 316.089 1431.04 332.622 1482.13 350.542C1504.08 347.22 1527.75 344.476 1552.97 342.68C1572.19 341.303 1590.58 340.614 1608.04 340.435L1548.45 377.483Z" fill="#B6E0DE"/>
</svg>
