<svg width="1512" height="163" viewBox="0 0 1512 163" fill="none" xmlns="http://www.w3.org/2000/svg">
<path d="M157.051 44.4065C136.72 49.0531 100.885 60.9304 57.3329 61.2781C17.0132 61.6022 -16.282 49.501 -22.1426 40.3669C4.27265 41.5455 31.1711 38.9879 59.4898 39.1058C82.5696 39.203 102.258 39.4593 121.213 40.3669C130.65 40.8088 152.372 42.0081 157.051 44.4065Z" fill="#0A87AB"/>
<path d="M177.302 40.7558L191.233 58.3404L157.054 44.4036C152.375 42.0051 130.653 40.8059 121.216 40.3551C102.261 39.4476 82.5725 39.1765 59.4927 39.094C31.1741 38.9761 4.27561 41.5248 -22.1249 40.3551C-12.0037 31.8928 21.5803 20.2483 53.202 19.5146C57.4655 19.4144 61.7468 19.3997 66.0221 19.4616C73.4239 15.7561 81.4479 13.4534 89.6883 12.6699C87.3046 13.274 85.7459 15.9611 85.9256 17.4255C86.1466 19.2317 87.2545 19.8299 89.2758 20.5252C117.205 22.6261 142.631 27.5084 157.717 32.8003C164.199 31.8191 171.188 31.0088 178.637 30.4785C184.312 30.0719 189.742 29.8685 194.898 29.8155L177.302 40.7558Z" fill="#0A87AB"/>
<path d="M434.315 31.7366C413.984 36.3832 378.149 48.2605 334.597 48.6081C294.277 48.9323 260.982 36.831 255.122 27.6969C281.537 28.8755 308.435 26.318 336.754 26.4359C359.834 26.5331 379.522 26.7894 398.477 27.6969C407.914 28.1389 429.636 29.3381 434.315 31.7366Z" fill="#0A87AB"/>
<path d="M454.566 28.0859L468.497 45.6705L434.318 31.7336C429.639 29.3352 407.917 28.136 398.48 27.6852C379.525 26.7776 359.837 26.5066 336.757 26.4241C308.438 26.3062 281.54 28.8549 255.139 27.6852C265.26 19.2229 298.844 7.57835 330.466 6.84468C334.73 6.7445 339.011 6.72977 343.286 6.79165C350.688 3.08616 358.712 0.783453 366.952 0C364.569 0.604029 363.01 3.29122 363.19 4.75562C363.411 6.56182 364.519 7.15996 366.54 7.85533C394.47 9.95617 419.895 14.8385 434.981 20.1304C441.463 19.1492 448.452 18.3389 455.901 17.8085C461.576 17.4019 467.006 17.1986 472.163 17.1456L454.566 28.0859Z" fill="#0A87AB"/>
<path d="M194.766 67.0944C174.435 71.741 138.6 83.6182 95.048 83.9659C54.7283 84.29 21.4331 72.1888 15.5725 63.0547C41.9877 64.2333 68.8862 61.6758 97.2048 61.7936C120.285 61.8909 139.973 62.1472 158.928 63.0547C168.365 63.4967 190.087 64.6959 194.766 67.0944Z" fill="#0ABDC4"/>
<path d="M215.017 63.4437L228.948 81.0283L194.769 67.0914C190.09 64.693 168.368 63.4938 158.931 63.0429C139.976 62.1354 120.288 61.8644 97.2078 61.7819C68.8891 61.664 41.9907 64.2127 15.5902 63.0429C25.7114 54.5806 59.2954 42.9361 90.9171 42.2025C95.1806 42.1023 99.4619 42.0876 103.737 42.1494C111.139 38.4439 119.163 36.1412 127.403 35.3578C125.02 35.9618 123.461 38.649 123.641 40.1134C123.862 41.9196 124.97 42.5177 126.991 43.2131C154.921 45.314 180.346 50.1963 195.432 55.4882C201.914 54.507 208.903 53.6967 216.352 53.1663C222.027 52.7597 227.457 52.5564 232.613 52.5034L215.017 63.4437Z" fill="#0ABDC4"/>
<path d="M344.742 55.3085C324.411 59.9551 288.576 71.8324 245.024 72.18C204.704 72.5042 171.409 60.4029 165.548 51.2688C191.964 52.4474 218.862 49.8899 247.181 50.0077C270.26 50.105 289.949 50.3613 308.904 51.2688C318.341 51.7108 340.063 52.91 344.742 55.3085Z" fill="#0ABDC4"/>
<path d="M364.993 51.6578L378.924 69.2424L344.745 55.3055C340.066 52.9071 318.344 51.7079 308.907 51.2571C289.952 50.3495 270.263 50.0785 247.184 49.996C218.865 49.8781 191.967 52.4268 165.566 51.2571C175.687 42.7948 209.271 31.1503 240.893 30.4166C245.156 30.3164 249.438 30.3017 253.713 30.3635C261.115 26.6581 269.139 24.3554 277.379 23.5719C274.995 24.1759 273.437 26.8631 273.617 28.3275C273.838 30.1337 274.945 30.7319 276.967 31.4272C304.896 33.5281 330.322 38.4104 345.408 43.7023C351.89 42.7211 358.879 41.9108 366.328 41.3804C372.003 40.9738 377.433 40.7705 382.589 40.7175L364.993 51.6578Z" fill="#0ABDC4"/>
<path d="M561.898 52.9513C541.567 57.5979 505.732 69.4752 462.18 69.8229C421.86 70.147 388.565 58.0458 382.704 48.9117C409.12 50.0903 436.018 47.5327 464.337 47.6506C487.416 47.7478 507.105 48.0041 526.06 48.9117C535.497 49.3536 557.219 50.5529 561.898 52.9513Z" fill="#0ABDC4"/>
<path d="M582.149 49.3006L596.08 66.8852L561.901 52.9484C557.222 50.5499 535.5 49.3507 526.063 48.8999C507.108 47.9924 487.419 47.7213 464.34 47.6388C436.021 47.5209 409.123 50.0696 382.722 48.8999C392.843 40.4376 426.427 28.7931 458.049 28.0594C462.312 27.9592 466.594 27.9445 470.869 28.0064C478.271 24.3009 486.295 21.9982 494.535 21.2147C492.151 21.8188 490.593 24.5059 490.773 25.9703C490.994 27.7765 492.101 28.3747 494.123 29.07C522.052 31.1709 547.478 36.0532 562.564 41.3451C569.046 40.3639 576.035 39.5536 583.484 39.0233C589.159 38.6167 594.589 38.4133 599.745 38.3603L582.149 49.3006Z" fill="#0ABDC4"/>
<path d="M292.884 80.3535C272.553 85.0001 236.718 96.8774 193.166 97.2251C152.846 97.5492 119.551 85.448 113.69 76.3139C140.106 77.4925 167.004 74.9349 195.323 75.0528C218.403 75.15 238.091 75.4064 257.046 76.3139C266.483 76.7559 288.205 77.9551 292.884 80.3535Z" fill="#0A87AB"/>
<path d="M313.135 76.7028L327.066 94.2874L292.887 80.3506C288.208 77.9521 266.486 76.7529 257.049 76.3021C238.094 75.3946 218.406 75.1235 195.326 75.041C167.007 74.9231 140.109 77.4719 113.708 76.3021C123.829 67.8398 157.413 56.1953 189.035 55.4616C193.299 55.3614 197.58 55.3467 201.855 55.4086C209.257 51.7031 217.281 49.4004 225.521 48.6169C223.138 49.221 221.579 51.9082 221.759 53.3726C221.98 55.1788 223.087 55.7769 225.109 56.4723C253.038 58.5731 278.464 63.4554 293.55 68.7473C300.032 67.7661 307.021 66.9559 314.47 66.4255C320.145 66.0189 325.575 65.8156 330.731 65.7625L313.135 76.7028Z" fill="#0A87AB"/>
<path d="M138.193 104.515C117.863 109.161 82.0275 121.039 38.4755 121.386C-1.84418 121.71 -35.1394 109.609 -41 100.475C-14.5848 101.654 12.3137 99.0962 40.6323 99.214C63.7121 99.3113 83.4006 99.5676 102.355 100.475C111.793 100.917 133.514 102.116 138.193 104.515Z" fill="#0A87AB"/>
<path d="M158.445 100.864L172.376 118.449L138.196 104.512C133.517 102.113 111.796 100.914 102.358 100.463C83.4035 99.5558 63.7151 99.2848 40.6353 99.2023C12.3166 99.0844 -14.5818 101.633 -40.9823 100.463C-30.8611 92.0011 2.72289 80.3566 34.3446 79.6229C38.6081 79.5227 42.8893 79.508 47.1647 79.5698C54.5665 75.8644 62.5905 73.5617 70.8308 72.7782C68.4471 73.3822 66.8885 76.0694 67.0682 77.5338C67.2892 79.34 68.3971 79.9382 70.4184 80.6335C98.3481 82.7344 123.773 87.6167 138.859 92.9086C145.342 91.9274 152.331 91.1171 159.779 90.5867C165.454 90.1801 170.885 89.9768 176.041 89.9238L158.445 100.864Z" fill="#0A87AB"/>
<path d="M273.731 107.756C253.401 112.402 217.566 124.28 174.014 124.627C133.694 124.952 100.399 112.85 94.5381 103.716C120.953 104.895 147.852 102.337 176.17 102.455C199.25 102.552 218.939 102.809 237.893 103.716C247.331 104.158 269.052 105.357 273.731 107.756Z" fill="#0ABDC4"/>
<path d="M293.983 104.105L307.914 121.69L273.734 107.753C269.055 105.354 247.334 104.155 237.896 103.704C218.942 102.797 199.253 102.526 176.173 102.443C147.855 102.325 120.956 104.874 94.5558 103.704C104.677 95.2421 138.261 83.5976 169.883 82.864C174.146 82.7638 178.427 82.7491 182.703 82.8109C190.105 79.1054 198.129 76.8027 206.369 76.0193C203.985 76.6233 202.427 79.3105 202.606 80.7749C202.827 82.5811 203.935 83.1792 205.956 83.8746C233.886 85.9755 259.311 90.8578 274.397 96.1497C280.88 95.1685 287.869 94.3582 295.317 93.8278C300.992 93.4212 306.423 93.2179 311.579 93.1649L293.983 104.105Z" fill="#0ABDC4"/>
<path d="M523.593 71.2195C503.263 75.8661 467.427 87.7434 423.875 88.0911C383.556 88.4152 350.26 76.314 344.4 67.1799C370.815 68.3584 397.714 65.8009 426.032 65.9188C449.112 66.016 468.8 66.2723 487.755 67.1799C497.193 67.6218 518.914 68.821 523.593 71.2195Z" fill="#0A87AB"/>
<path d="M543.844 67.5688L557.775 85.1534L523.596 71.2165C518.917 68.8181 497.196 67.6189 487.758 67.1681C468.803 66.2605 449.115 65.9895 426.035 65.907C397.717 65.7891 370.818 68.3378 344.418 67.1681C354.539 58.7058 388.123 47.0613 419.744 46.3276C424.008 46.2274 428.289 46.2127 432.565 46.2746C439.966 42.5691 447.99 40.2664 456.231 39.4829C453.847 40.0869 452.288 42.7741 452.468 44.2385C452.689 46.0447 453.797 46.6429 455.818 47.3382C483.748 49.4391 509.173 54.3214 524.259 59.6133C530.741 58.6321 537.73 57.8218 545.179 57.2915C550.854 56.8848 556.285 56.6815 561.441 56.6285L543.844 67.5688Z" fill="#0A87AB"/>
<path d="M420.467 88.6038C400.136 93.2504 364.301 105.128 320.749 105.475C280.429 105.799 247.134 93.6982 241.273 84.5641C267.688 85.7427 294.587 83.1852 322.906 83.303C345.985 83.4003 365.674 83.6566 384.628 84.5641C394.066 85.0061 415.788 86.2053 420.467 88.6038Z" fill="#0ABDC4"/>
<path d="M440.718 84.9531L454.649 102.538L420.47 88.6008C415.79 86.2024 394.069 85.0032 384.631 84.5523C365.677 83.6448 345.988 83.3738 322.908 83.2913C294.59 83.1734 267.691 85.7221 241.291 84.5523C251.412 76.09 284.996 64.4455 316.618 63.7119C320.881 63.6117 325.163 63.597 329.438 63.6588C336.84 59.9533 344.864 57.6506 353.104 56.8672C350.72 57.4712 349.162 60.1584 349.341 61.6228C349.562 63.429 350.67 64.0271 352.692 64.7225C380.621 66.8234 406.046 71.7057 421.132 76.9976C427.615 76.0164 434.604 75.2061 442.053 74.6757C447.727 74.2691 453.158 74.0658 458.314 74.0128L440.718 84.9531Z" fill="#0ABDC4"/>
<path d="M396.011 115.122C375.68 119.769 339.845 131.646 296.293 131.994C255.973 132.318 222.678 120.217 216.817 111.082C243.232 112.261 270.131 109.703 298.449 109.821C321.529 109.919 341.218 110.175 360.172 111.082C369.61 111.524 391.331 112.724 396.011 115.122Z" fill="#0A87AB"/>
<path d="M416.262 111.471L430.193 129.056L396.013 115.119C391.334 112.721 369.613 111.521 360.175 111.071C341.221 110.163 321.532 109.892 298.452 109.81C270.134 109.692 243.235 112.24 216.835 111.071C226.956 102.608 260.54 90.9639 292.162 90.2302C296.425 90.13 300.706 90.1153 304.982 90.1771C312.384 86.4717 320.408 84.169 328.648 83.3855C326.264 83.9895 324.706 86.6767 324.885 88.1411C325.106 89.9473 326.214 90.5455 328.235 91.2408C356.165 93.3417 381.59 98.224 396.676 103.516C403.159 102.535 410.148 101.724 417.596 101.194C423.271 100.787 428.702 100.584 433.858 100.531L416.262 111.471Z" fill="#0A87AB"/>
<path d="M582.051 75.4065C561.72 80.0531 525.885 91.9304 482.333 92.2781C442.013 92.6022 408.718 80.501 402.857 71.3669C429.273 72.5455 456.171 69.9879 484.49 70.1058C507.57 70.203 527.258 70.4593 546.213 71.3669C555.65 71.8088 577.372 73.0081 582.051 75.4065Z" fill="#0A87AB"/>
<path d="M602.302 71.7558L616.233 89.3404L582.054 75.4036C577.375 73.0051 555.653 71.8059 546.216 71.3551C527.261 70.4476 507.573 70.1765 484.493 70.094C456.174 69.9761 429.276 72.5248 402.875 71.3551C412.996 62.8928 446.58 51.2483 478.202 50.5146C482.466 50.4144 486.747 50.3997 491.022 50.4616C498.424 46.7561 506.448 44.4534 514.688 43.6699C512.305 44.274 510.746 46.9611 510.926 48.4255C511.147 50.2317 512.254 50.8299 514.276 51.5252C542.205 53.6261 567.631 58.5084 582.717 63.8003C589.199 62.8191 596.188 62.0088 603.637 61.4785C609.312 61.0719 614.742 60.8685 619.898 60.8155L602.302 71.7558Z" fill="#0A87AB"/>
<path d="M859.315 62.7366C838.984 67.3832 803.149 79.2605 759.597 79.6081C719.277 79.9323 685.982 67.831 680.122 58.6969C706.537 59.8755 733.435 57.318 761.754 57.4359C784.834 57.5331 804.522 57.7894 823.477 58.6969C832.914 59.1389 854.636 60.3381 859.315 62.7366Z" fill="#0A87AB"/>
<path d="M879.566 59.0859L893.497 76.6705L859.318 62.7336C854.639 60.3352 832.917 59.136 823.48 58.6852C804.525 57.7776 784.837 57.5066 761.757 57.4241C733.438 57.3062 706.54 59.8549 680.139 58.6852C690.26 50.2229 723.844 38.5784 755.466 37.8447C759.73 37.7445 764.011 37.7298 768.286 37.7916C775.688 34.0862 783.712 31.7835 791.952 31C789.569 31.604 788.01 34.2912 788.19 35.7556C788.411 37.5618 789.519 38.16 791.54 38.8553C819.47 40.9562 844.895 45.8385 859.981 51.1304C866.463 50.1492 873.452 49.3389 880.901 48.8085C886.576 48.4019 892.006 48.1986 897.163 48.1456L879.566 59.0859Z" fill="#0A87AB"/>
<path d="M619.766 98.0944C599.435 102.741 563.6 114.618 520.048 114.966C479.728 115.29 446.433 103.189 440.573 94.0547C466.988 95.2333 493.886 92.6758 522.205 92.7936C545.285 92.8909 564.973 93.1472 583.928 94.0547C593.365 94.4967 615.087 95.6959 619.766 98.0944Z" fill="#0ABDC4"/>
<path d="M640.017 94.4437L653.948 112.028L619.769 98.0914C615.09 95.693 593.368 94.4938 583.931 94.0429C564.976 93.1354 545.288 92.8644 522.208 92.7819C493.889 92.664 466.991 95.2127 440.59 94.0429C450.711 85.5806 484.295 73.9361 515.917 73.2025C520.181 73.1023 524.462 73.0876 528.737 73.1494C536.139 69.4439 544.163 67.1412 552.403 66.3578C550.02 66.9618 548.461 69.649 548.641 71.1134C548.862 72.9196 549.97 73.5177 551.991 74.2131C579.921 76.314 605.346 81.1963 620.432 86.4882C626.914 85.507 633.903 84.6967 641.352 84.1663C647.027 83.7597 652.457 83.5564 657.613 83.5034L640.017 94.4437Z" fill="#0ABDC4"/>
<path d="M769.742 86.3085C749.411 90.9551 713.576 102.832 670.024 103.18C629.704 103.504 596.409 91.4029 590.548 82.2688C616.964 83.4474 643.862 80.8899 672.181 81.0077C695.26 81.105 714.949 81.3613 733.904 82.2688C743.341 82.7108 765.063 83.91 769.742 86.3085Z" fill="#0ABDC4"/>
<path d="M789.993 82.6578L803.924 100.242L769.745 86.3055C765.066 83.9071 743.344 82.7079 733.907 82.2571C714.952 81.3495 695.263 81.0785 672.184 80.996C643.865 80.8781 616.967 83.4268 590.566 82.2571C600.687 73.7948 634.271 62.1503 665.893 61.4166C670.156 61.3164 674.438 61.3017 678.713 61.3635C686.115 57.6581 694.139 55.3554 702.379 54.5719C699.995 55.1759 698.437 57.8631 698.617 59.3275C698.838 61.1337 699.945 61.7319 701.967 62.4272C729.896 64.5281 755.322 69.4104 770.408 74.7023C776.89 73.7211 783.879 72.9108 791.328 72.3804C797.003 71.9738 802.433 71.7705 807.589 71.7175L789.993 82.6578Z" fill="#0ABDC4"/>
<path d="M986.898 83.9513C966.567 88.5979 930.732 100.475 887.18 100.823C846.86 101.147 813.565 89.0458 807.704 79.9117C834.12 81.0903 861.018 78.5327 889.337 78.6506C912.416 78.7478 932.105 79.0041 951.06 79.9117C960.497 80.3536 982.219 81.5529 986.898 83.9513Z" fill="#0ABDC4"/>
<path d="M1007.15 80.3006L1021.08 97.8852L986.901 83.9484C982.222 81.5499 960.5 80.3507 951.063 79.8999C932.108 78.9924 912.419 78.7213 889.34 78.6388C861.021 78.5209 834.123 81.0696 807.722 79.8999C817.843 71.4376 851.427 59.7931 883.049 59.0594C887.312 58.9592 891.594 58.9445 895.869 59.0064C903.271 55.3009 911.295 52.9982 919.535 52.2147C917.151 52.8188 915.593 55.5059 915.773 56.9703C915.994 58.7765 917.101 59.3747 919.123 60.07C947.052 62.1709 972.478 67.0532 987.564 72.3451C994.046 71.3639 1001.03 70.5536 1008.48 70.0233C1014.16 69.6167 1019.59 69.4133 1024.75 69.3603L1007.15 80.3006Z" fill="#0ABDC4"/>
<path d="M717.884 111.354C697.553 116 661.718 127.877 618.166 128.225C577.846 128.549 544.551 116.448 538.69 107.314C565.106 108.492 592.004 105.935 620.323 106.053C643.403 106.15 663.091 106.406 682.046 107.314C691.483 107.756 713.205 108.955 717.884 111.354Z" fill="#0A87AB"/>
<path d="M738.135 107.703L752.066 125.287L717.887 111.351C713.208 108.952 691.486 107.753 682.049 107.302C663.094 106.395 643.406 106.124 620.326 106.041C592.007 105.923 565.109 108.472 538.708 107.302C548.829 98.8398 582.413 87.1953 614.035 86.4616C618.299 86.3614 622.58 86.3467 626.855 86.4086C634.257 82.7031 642.281 80.4004 650.521 79.6169C648.138 80.221 646.579 82.9082 646.759 84.3726C646.98 86.1788 648.087 86.7769 650.109 87.4723C678.038 89.5731 703.464 94.4554 718.55 99.7473C725.032 98.7661 732.021 97.9559 739.47 97.4255C745.145 97.0189 750.575 96.8156 755.731 96.7625L738.135 107.703Z" fill="#0A87AB"/>
<path d="M563.193 135.515C542.863 140.161 507.027 152.039 463.476 152.386C423.156 152.71 389.861 140.609 384 131.475C410.415 132.654 437.314 130.096 465.632 130.214C488.712 130.311 508.401 130.568 527.355 131.475C536.793 131.917 558.514 133.116 563.193 135.515Z" fill="#0A87AB"/>
<path d="M583.445 131.864L597.376 149.449L563.196 135.512C558.517 133.113 536.796 131.914 527.358 131.463C508.404 130.556 488.715 130.285 465.635 130.202C437.317 130.084 410.418 132.633 384.018 131.463C394.139 123.001 427.723 111.357 459.345 110.623C463.608 110.523 467.889 110.508 472.165 110.57C479.566 106.864 487.59 104.562 495.831 103.778C493.447 104.382 491.888 107.069 492.068 108.534C492.289 110.34 493.397 110.938 495.418 111.634C523.348 113.734 548.773 118.617 563.859 123.909C570.342 122.927 577.331 122.117 584.779 121.587C590.454 121.18 595.885 120.977 601.041 120.924L583.445 131.864Z" fill="#0A87AB"/>
<path d="M698.731 138.756C678.401 143.402 642.566 155.28 599.014 155.627C558.694 155.952 525.399 143.85 519.538 134.716C545.953 135.895 572.852 133.337 601.17 133.455C624.25 133.552 643.939 133.809 662.893 134.716C672.331 135.158 694.052 136.357 698.731 138.756Z" fill="#0ABDC4"/>
<path d="M718.983 135.105L732.914 152.69L698.734 138.753C694.055 136.354 672.334 135.155 662.896 134.704C643.942 133.797 624.253 133.526 601.173 133.443C572.855 133.325 545.956 135.874 519.556 134.704C529.677 126.242 563.261 114.598 594.883 113.864C599.146 113.764 603.427 113.749 607.703 113.811C615.105 110.105 623.129 107.803 631.369 107.019C628.985 107.623 627.427 110.311 627.606 111.775C627.827 113.581 628.935 114.179 630.956 114.875C658.886 116.975 684.311 121.858 699.397 127.15C705.88 126.168 712.869 125.358 720.317 124.828C725.992 124.421 731.423 124.218 736.579 124.165L718.983 135.105Z" fill="#0ABDC4"/>
<path d="M948.593 102.219C928.263 106.866 892.427 118.743 848.875 119.091C808.556 119.415 775.26 107.314 769.4 98.1799C795.815 99.3584 822.714 96.8009 851.032 96.9188C874.112 97.016 893.8 97.2723 912.755 98.1799C922.193 98.6218 943.914 99.821 948.593 102.219Z" fill="#0A87AB"/>
<path d="M968.844 98.5688L982.775 116.153L948.596 102.217C943.917 99.8181 922.196 98.6189 912.758 98.1681C893.803 97.2605 874.115 96.9895 851.035 96.907C822.717 96.7891 795.818 99.3378 769.418 98.1681C779.539 89.7058 813.123 78.0613 844.744 77.3276C849.008 77.2274 853.289 77.2127 857.565 77.2746C864.966 73.5691 872.99 71.2664 881.231 70.4829C878.847 71.0869 877.288 73.7741 877.468 75.2385C877.689 77.0447 878.797 77.6429 880.818 78.3382C908.748 80.4391 934.173 85.3214 949.259 90.6133C955.741 89.6321 962.73 88.8218 970.179 88.2915C975.854 87.8848 981.285 87.6815 986.441 87.6285L968.844 98.5688Z" fill="#0A87AB"/>
<path d="M845.467 119.604C825.136 124.25 789.301 136.128 745.749 136.475C705.429 136.799 672.134 124.698 666.273 115.564C692.688 116.743 719.587 114.185 747.906 114.303C770.985 114.4 790.674 114.657 809.628 115.564C819.066 116.006 840.788 117.205 845.467 119.604Z" fill="#0ABDC4"/>
<path d="M865.718 115.953L879.649 133.538L845.47 119.601C840.79 117.202 819.069 116.003 809.631 115.552C790.677 114.645 770.988 114.374 747.908 114.291C719.59 114.173 692.691 116.722 666.291 115.552C676.412 107.09 709.996 95.4455 741.618 94.7119C745.881 94.6117 750.163 94.597 754.438 94.6588C761.84 90.9533 769.864 88.6506 778.104 87.8672C775.72 88.4712 774.162 91.1584 774.341 92.6228C774.562 94.429 775.67 95.0271 777.692 95.7225C805.621 97.8234 831.046 102.706 846.132 107.998C852.615 107.016 859.604 106.206 867.053 105.676C872.727 105.269 878.158 105.066 883.314 105.013L865.718 115.953Z" fill="#0ABDC4"/>
<path d="M821.011 146.122C800.68 150.769 764.845 162.646 721.293 162.994C680.973 163.318 647.678 151.217 641.817 142.082C668.232 143.261 695.131 140.703 723.449 140.821C746.529 140.919 766.218 141.175 785.172 142.082C794.61 142.524 816.331 143.724 821.011 146.122Z" fill="#0A87AB"/>
<path d="M841.262 142.471L855.193 160.056L821.013 146.119C816.334 143.721 794.613 142.521 785.175 142.071C766.221 141.163 746.532 140.892 723.452 140.81C695.134 140.692 668.235 143.24 641.835 142.071C651.956 133.608 685.54 121.964 717.162 121.23C721.425 121.13 725.706 121.115 729.982 121.177C737.384 117.472 745.408 115.169 753.648 114.385C751.264 114.99 749.706 117.677 749.885 119.141C750.106 120.947 751.214 121.545 753.235 122.241C781.165 124.342 806.59 129.224 821.676 134.516C828.159 133.535 835.148 132.724 842.596 132.194C848.271 131.787 853.702 131.584 858.858 131.531L841.262 142.471Z" fill="#0A87AB"/>
<path d="M1037.05 57.4065C1016.72 62.0531 980.885 73.9304 937.333 74.2781C897.013 74.6022 863.718 62.501 857.857 53.3669C884.273 54.5455 911.171 51.9879 939.49 52.1058C962.57 52.203 982.258 52.4593 1001.21 53.3669C1010.65 53.8088 1032.37 55.0081 1037.05 57.4065Z" fill="#0A87AB"/>
<path d="M1057.3 53.7558L1071.23 71.3404L1037.05 57.4036C1032.37 55.0051 1010.65 53.8059 1001.22 53.3551C982.261 52.4476 962.573 52.1765 939.493 52.094C911.174 51.9761 884.276 54.5248 857.875 53.3551C867.996 44.8928 901.58 33.2483 933.202 32.5146C937.466 32.4144 941.747 32.3997 946.022 32.4616C953.424 28.7561 961.448 26.4534 969.688 25.6699C967.305 26.274 965.746 28.9611 965.926 30.4255C966.147 32.2317 967.254 32.8299 969.276 33.5252C997.205 35.6261 1022.63 40.5084 1037.72 45.8003C1044.2 44.8191 1051.19 44.0088 1058.64 43.4785C1064.31 43.0719 1069.74 42.8685 1074.9 42.8155L1057.3 53.7558Z" fill="#0A87AB"/>
<path d="M1314.31 44.7366C1293.98 49.3832 1258.15 61.2605 1214.6 61.6081C1174.28 61.9323 1140.98 49.831 1135.12 40.6969C1161.54 41.8755 1188.44 39.318 1216.75 39.4359C1239.83 39.5331 1259.52 39.7894 1278.48 40.6969C1287.91 41.1389 1309.64 42.3381 1314.31 44.7366Z" fill="#0A87AB"/>
<path d="M1334.57 41.0859L1348.5 58.6705L1314.32 44.7336C1309.64 42.3352 1287.92 41.136 1278.48 40.6852C1259.52 39.7776 1239.84 39.5066 1216.76 39.4241C1188.44 39.3062 1161.54 41.8549 1135.14 40.6852C1145.26 32.2229 1178.84 20.5784 1210.47 19.8447C1214.73 19.7445 1219.01 19.7298 1223.29 19.7916C1230.69 16.0862 1238.71 13.7835 1246.95 13C1244.57 13.604 1243.01 16.2912 1243.19 17.7556C1243.41 19.5618 1244.52 20.16 1246.54 20.8553C1274.47 22.9562 1299.89 27.8385 1314.98 33.1304C1321.46 32.1492 1328.45 31.3389 1335.9 30.8085C1341.58 30.4019 1347.01 30.1986 1352.16 30.1456L1334.57 41.0859Z" fill="#0A87AB"/>
<path d="M1074.77 80.0944C1054.44 84.741 1018.6 96.6182 975.048 96.9659C934.728 97.29 901.433 85.1888 895.573 76.0547C921.988 77.2333 948.886 74.6758 977.205 74.7936C1000.28 74.8909 1019.97 75.1472 1038.93 76.0547C1048.37 76.4967 1070.09 77.6959 1074.77 80.0944Z" fill="#0ABDC4"/>
<path d="M1095.02 76.4437L1108.95 94.0283L1074.77 80.0914C1070.09 77.693 1048.37 76.4938 1038.93 76.0429C1019.98 75.1354 1000.29 74.8644 977.208 74.7819C948.889 74.664 921.991 77.2127 895.59 76.0429C905.711 67.5806 939.295 55.9361 970.917 55.2025C975.181 55.1023 979.462 55.0876 983.737 55.1494C991.139 51.4439 999.163 49.1412 1007.4 48.3578C1005.02 48.9618 1003.46 51.649 1003.64 53.1134C1003.86 54.9196 1004.97 55.5177 1006.99 56.2131C1034.92 58.314 1060.35 63.1963 1075.43 68.4882C1081.91 67.507 1088.9 66.6967 1096.35 66.1663C1102.03 65.7597 1107.46 65.5564 1112.61 65.5034L1095.02 76.4437Z" fill="#0ABDC4"/>
<path d="M1224.74 68.3085C1204.41 72.9551 1168.58 84.8324 1125.02 85.18C1084.7 85.5042 1051.41 73.4029 1045.55 64.2688C1071.96 65.4474 1098.86 62.8899 1127.18 63.0077C1150.26 63.105 1169.95 63.3613 1188.9 64.2688C1198.34 64.7108 1220.06 65.91 1224.74 68.3085Z" fill="#0ABDC4"/>
<path d="M1244.99 64.6578L1258.92 82.2424L1224.74 68.3055C1220.07 65.9071 1198.34 64.7079 1188.91 64.2571C1169.95 63.3495 1150.26 63.0785 1127.18 62.996C1098.86 62.8781 1071.97 65.4268 1045.57 64.2571C1055.69 55.7948 1089.27 44.1503 1120.89 43.4166C1125.16 43.3164 1129.44 43.3017 1133.71 43.3635C1141.11 39.6581 1149.14 37.3554 1157.38 36.5719C1155 37.1759 1153.44 39.8631 1153.62 41.3275C1153.84 43.1337 1154.95 43.7319 1156.97 44.4272C1184.9 46.5281 1210.32 51.4104 1225.41 56.7023C1231.89 55.7211 1238.88 54.9108 1246.33 54.3804C1252 53.9738 1257.43 53.7705 1262.59 53.7175L1244.99 64.6578Z" fill="#0ABDC4"/>
<path d="M1441.9 65.9513C1421.57 70.5979 1385.73 82.4752 1342.18 82.8229C1301.86 83.147 1268.56 71.0458 1262.7 61.9117C1289.12 63.0903 1316.02 60.5327 1344.34 60.6506C1367.42 60.7478 1387.1 61.0041 1406.06 61.9117C1415.5 62.3536 1437.22 63.5529 1441.9 65.9513Z" fill="#0ABDC4"/>
<path d="M1462.15 62.3006L1476.08 79.8852L1441.9 65.9484C1437.22 63.5499 1415.5 62.3507 1406.06 61.8999C1387.11 60.9924 1367.42 60.7213 1344.34 60.6388C1316.02 60.5209 1289.12 63.0696 1262.72 61.8999C1272.84 53.4376 1306.43 41.7931 1338.05 41.0594C1342.31 40.9592 1346.59 40.9445 1350.87 41.0064C1358.27 37.3009 1366.29 34.9982 1374.54 34.2147C1372.15 34.8188 1370.59 37.5059 1370.77 38.9703C1370.99 40.7765 1372.1 41.3747 1374.12 42.07C1402.05 44.1709 1427.48 49.0532 1442.56 54.3451C1449.05 53.3639 1456.03 52.5536 1463.48 52.0233C1469.16 51.6167 1474.59 51.4133 1479.75 51.3603L1462.15 62.3006Z" fill="#0ABDC4"/>
<path d="M1172.88 93.3535C1152.55 98.0001 1116.72 109.877 1073.17 110.225C1032.85 110.549 999.551 98.448 993.69 89.3139C1020.11 90.4925 1047 87.9349 1075.32 88.0528C1098.4 88.15 1118.09 88.4064 1137.05 89.3139C1146.48 89.7559 1168.2 90.9551 1172.88 93.3535Z" fill="#0A87AB"/>
<path d="M1193.13 89.7028L1207.07 107.287L1172.89 93.3506C1168.21 90.9521 1146.49 89.7529 1137.05 89.3021C1118.09 88.3946 1098.41 88.1235 1075.33 88.041C1047.01 87.9231 1020.11 90.4719 993.708 89.3021C1003.83 80.8398 1037.41 69.1953 1069.03 68.4616C1073.3 68.3614 1077.58 68.3467 1081.86 68.4086C1089.26 64.7031 1097.28 62.4004 1105.52 61.6169C1103.14 62.221 1101.58 64.9082 1101.76 66.3726C1101.98 68.1788 1103.09 68.7769 1105.11 69.4723C1133.04 71.5731 1158.46 76.4554 1173.55 81.7473C1180.03 80.7661 1187.02 79.9559 1194.47 79.4255C1200.14 79.0189 1205.57 78.8156 1210.73 78.7625L1193.13 89.7028Z" fill="#0A87AB"/>
<path d="M1018.19 117.515C997.863 122.161 962.027 134.039 918.476 134.386C878.156 134.71 844.861 122.609 839 113.475C865.415 114.654 892.314 112.096 920.632 112.214C943.712 112.311 963.401 112.568 982.355 113.475C991.793 113.917 1013.51 115.116 1018.19 117.515Z" fill="#0A87AB"/>
<path d="M1038.44 113.864L1052.38 131.449L1018.2 117.512C1013.52 115.113 991.796 113.914 982.358 113.463C963.404 112.556 943.715 112.285 920.635 112.202C892.317 112.084 865.418 114.633 839.018 113.463C849.139 105.001 882.723 93.3566 914.345 92.6229C918.608 92.5227 922.889 92.508 927.165 92.5698C934.566 88.8644 942.59 86.5617 950.831 85.7782C948.447 86.3822 946.888 89.0694 947.068 90.5338C947.289 92.34 948.397 92.9382 950.418 93.6335C978.348 95.7344 1003.77 100.617 1018.86 105.909C1025.34 104.927 1032.33 104.117 1039.78 103.587C1045.45 103.18 1050.88 102.977 1056.04 102.924L1038.44 113.864Z" fill="#0A87AB"/>
<path d="M1153.73 120.756C1133.4 125.402 1097.57 137.28 1054.01 137.627C1013.69 137.952 980.399 125.85 974.538 116.716C1000.95 117.895 1027.85 115.337 1056.17 115.455C1079.25 115.552 1098.94 115.809 1117.89 116.716C1127.33 117.158 1149.05 118.357 1153.73 120.756Z" fill="#0ABDC4"/>
<path d="M1173.98 117.105L1187.91 134.69L1153.73 120.753C1149.06 118.354 1127.33 117.155 1117.9 116.704C1098.94 115.797 1079.25 115.526 1056.17 115.443C1027.85 115.325 1000.96 117.874 974.556 116.704C984.677 108.242 1018.26 96.5976 1049.88 95.864C1054.15 95.7638 1058.43 95.7491 1062.7 95.8109C1070.1 92.1054 1078.13 89.8027 1086.37 89.0193C1083.99 89.6233 1082.43 92.3105 1082.61 93.7749C1082.83 95.5811 1083.94 96.1792 1085.96 96.8746C1113.89 98.9755 1139.31 103.858 1154.4 109.15C1160.88 108.168 1167.87 107.358 1175.32 106.828C1180.99 106.421 1186.42 106.218 1191.58 106.165L1173.98 117.105Z" fill="#0ABDC4"/>
<path d="M1403.59 84.2195C1383.26 88.8661 1347.43 100.743 1303.88 101.091C1263.56 101.415 1230.26 89.314 1224.4 80.1799C1250.82 81.3584 1277.71 78.8009 1306.03 78.9188C1329.11 79.016 1348.8 79.2723 1367.76 80.1799C1377.19 80.6218 1398.91 81.821 1403.59 84.2195Z" fill="#0A87AB"/>
<path d="M1423.84 80.5688L1437.78 98.1534L1403.6 84.2165C1398.92 81.8181 1377.2 80.6189 1367.76 80.1681C1348.8 79.2605 1329.11 78.9895 1306.04 78.907C1277.72 78.7891 1250.82 81.3378 1224.42 80.1681C1234.54 71.7058 1268.12 60.0613 1299.74 59.3276C1304.01 59.2274 1308.29 59.2127 1312.56 59.2746C1319.97 55.5691 1327.99 53.2664 1336.23 52.4829C1333.85 53.0869 1332.29 55.7741 1332.47 57.2385C1332.69 59.0447 1333.8 59.6429 1335.82 60.3382C1363.75 62.4391 1389.17 67.3214 1404.26 72.6133C1410.74 71.6321 1417.73 70.8218 1425.18 70.2915C1430.85 69.8848 1436.28 69.6815 1441.44 69.6285L1423.84 80.5688Z" fill="#0A87AB"/>
<path d="M1300.47 101.604C1280.14 106.25 1244.3 118.128 1200.75 118.475C1160.43 118.799 1127.13 106.698 1121.27 97.5641C1147.69 98.7427 1174.59 96.1852 1202.91 96.303C1225.99 96.4003 1245.67 96.6566 1264.63 97.5641C1274.07 98.0061 1295.79 99.2053 1300.47 101.604Z" fill="#0ABDC4"/>
<path d="M1320.72 97.9531L1334.65 115.538L1300.47 101.601C1295.79 99.2024 1274.07 98.0032 1264.63 97.5523C1245.68 96.6448 1225.99 96.3738 1202.91 96.2913C1174.59 96.1734 1147.69 98.7221 1121.29 97.5523C1131.41 89.09 1165 77.4455 1196.62 76.7119C1200.88 76.6117 1205.16 76.597 1209.44 76.6588C1216.84 72.9533 1224.86 70.6506 1233.1 69.8672C1230.72 70.4712 1229.16 73.1584 1229.34 74.6228C1229.56 76.429 1230.67 77.0271 1232.69 77.7225C1260.62 79.8234 1286.05 84.7057 1301.13 89.9976C1307.61 89.0164 1314.6 88.2061 1322.05 87.6757C1327.73 87.2691 1333.16 87.0658 1338.31 87.0128L1320.72 97.9531Z" fill="#0ABDC4"/>
<path d="M1276.01 128.122C1255.68 132.769 1219.84 144.646 1176.29 144.994C1135.97 145.318 1102.68 133.217 1096.82 124.082C1123.23 125.261 1150.13 122.703 1178.45 122.821C1201.53 122.919 1221.22 123.175 1240.17 124.082C1249.61 124.524 1271.33 125.724 1276.01 128.122Z" fill="#0A87AB"/>
<path d="M1296.26 124.471L1310.19 142.056L1276.01 128.119C1271.33 125.721 1249.61 124.521 1240.18 124.071C1221.22 123.163 1201.53 122.892 1178.45 122.81C1150.13 122.692 1123.24 125.24 1096.83 124.071C1106.96 115.608 1140.54 103.964 1172.16 103.23C1176.43 103.13 1180.71 103.115 1184.98 103.177C1192.38 99.4717 1200.41 97.169 1208.65 96.3855C1206.26 96.9895 1204.71 99.6767 1204.89 101.141C1205.11 102.947 1206.21 103.545 1208.24 104.241C1236.17 106.342 1261.59 111.224 1276.68 116.516C1283.16 115.535 1290.15 114.724 1297.6 114.194C1303.27 113.787 1308.7 113.584 1313.86 113.531L1296.26 124.471Z" fill="#0A87AB"/>
<path d="M1518.05 68.4065C1497.72 73.0531 1461.88 84.9304 1418.33 85.2781C1378.01 85.6022 1344.72 73.501 1338.86 64.3669C1365.27 65.5455 1392.17 62.9879 1420.49 63.1058C1443.57 63.203 1463.26 63.4593 1482.21 64.3669C1491.65 64.8088 1513.37 66.0081 1518.05 68.4065Z" fill="#0A87AB"/>
<path d="M1538.3 64.7558L1552.23 82.3404L1518.05 68.4036C1513.37 66.0051 1491.65 64.8059 1482.22 64.3551C1463.26 63.4476 1443.57 63.1765 1420.49 63.094C1392.17 62.9761 1365.28 65.5248 1338.88 64.3551C1349 55.8928 1382.58 44.2483 1414.2 43.5146C1418.47 43.4144 1422.75 43.3997 1427.02 43.4616C1434.42 39.7561 1442.45 37.4534 1450.69 36.6699C1448.3 37.274 1446.75 39.9611 1446.93 41.4255C1447.15 43.2317 1448.25 43.8299 1450.28 44.5252C1478.21 46.6261 1503.63 51.5084 1518.72 56.8003C1525.2 55.8191 1532.19 55.0088 1539.64 54.4785C1545.31 54.0719 1550.74 53.8685 1555.9 53.8155L1538.3 64.7558Z" fill="#0A87AB"/>
<path d="M1555.77 91.0944C1535.44 95.741 1499.6 107.618 1456.05 107.966C1415.73 108.29 1382.43 96.1888 1376.57 87.0547C1402.99 88.2333 1429.89 85.6758 1458.2 85.7936C1481.28 85.8909 1500.97 86.1472 1519.93 87.0547C1529.37 87.4967 1551.09 88.6959 1555.77 91.0944Z" fill="#0ABDC4"/>
<path d="M1576.02 87.4437L1589.95 105.028L1555.77 91.0914C1551.09 88.693 1529.37 87.4938 1519.93 87.0429C1500.98 86.1354 1481.29 85.8644 1458.21 85.7819C1429.89 85.664 1402.99 88.2127 1376.59 87.0429C1386.71 78.5806 1420.3 66.9361 1451.92 66.2025C1456.18 66.1023 1460.46 66.0876 1464.74 66.1494C1472.14 62.4439 1480.16 60.1412 1488.4 59.3578C1486.02 59.9618 1484.46 62.649 1484.64 64.1134C1484.86 65.9196 1485.97 66.5177 1487.99 67.2131C1515.92 69.314 1541.35 74.1963 1556.43 79.4882C1562.91 78.507 1569.9 77.6967 1577.35 77.1663C1583.03 76.7597 1588.46 76.5564 1593.61 76.5034L1576.02 87.4437Z" fill="#0ABDC4"/>
<path d="M1653.88 104.354C1633.55 109 1597.72 120.877 1554.17 121.225C1513.85 121.549 1480.55 109.448 1474.69 100.314C1501.11 101.492 1528 98.9349 1556.32 99.0528C1579.4 99.15 1599.09 99.4064 1618.05 100.314C1627.48 100.756 1649.2 101.955 1653.88 104.354Z" fill="#0A87AB"/>
<path d="M1674.13 100.703L1688.07 118.287L1653.89 104.351C1649.21 101.952 1627.49 100.753 1618.05 100.302C1599.09 99.3946 1579.41 99.1235 1556.33 99.041C1528.01 98.9231 1501.11 101.472 1474.71 100.302C1484.83 91.8398 1518.41 80.1953 1550.03 79.4616C1554.3 79.3614 1558.58 79.3467 1562.86 79.4086C1570.26 75.7031 1578.28 73.4004 1586.52 72.6169C1584.14 73.221 1582.58 75.9082 1582.76 77.3726C1582.98 79.1788 1584.09 79.7769 1586.11 80.4723C1614.04 82.5731 1639.46 87.4554 1654.55 92.7473C1661.03 91.7661 1668.02 90.9559 1675.47 90.4255C1681.14 90.0189 1686.57 89.8156 1691.73 89.7625L1674.13 100.703Z" fill="#0A87AB"/>
<path d="M1499.19 128.515C1478.86 133.161 1443.03 145.039 1399.48 145.386C1359.16 145.71 1325.86 133.609 1320 124.475C1346.42 125.654 1373.31 123.096 1401.63 123.214C1424.71 123.311 1444.4 123.568 1463.36 124.475C1472.79 124.917 1494.51 126.116 1499.19 128.515Z" fill="#0A87AB"/>
<path d="M1519.44 124.864L1533.38 142.449L1499.2 128.512C1494.52 126.113 1472.8 124.914 1463.36 124.463C1444.4 123.556 1424.71 123.285 1401.64 123.202C1373.32 123.084 1346.42 125.633 1320.02 124.463C1330.14 116.001 1363.72 104.357 1395.34 103.623C1399.61 103.523 1403.89 103.508 1408.16 103.57C1415.57 99.8644 1423.59 97.5617 1431.83 96.7782C1429.45 97.3822 1427.89 100.069 1428.07 101.534C1428.29 103.34 1429.4 103.938 1431.42 104.634C1459.35 106.734 1484.77 111.617 1499.86 116.909C1506.34 115.927 1513.33 115.117 1520.78 114.587C1526.45 114.18 1531.88 113.977 1537.04 113.924L1519.44 124.864Z" fill="#0A87AB"/>
<path d="M1634.73 131.756C1614.4 136.402 1578.57 148.28 1535.01 148.627C1494.69 148.952 1461.4 136.85 1455.54 127.716C1481.95 128.895 1508.85 126.337 1537.17 126.455C1560.25 126.552 1579.94 126.809 1598.89 127.716C1608.33 128.158 1630.05 129.357 1634.73 131.756Z" fill="#0ABDC4"/>
<path d="M1654.98 128.105L1668.91 145.69L1634.73 131.753C1630.06 129.354 1608.33 128.155 1598.9 127.704C1579.94 126.797 1560.25 126.526 1537.17 126.443C1508.85 126.325 1481.96 128.874 1455.56 127.704C1465.68 119.242 1499.26 107.598 1530.88 106.864C1535.15 106.764 1539.43 106.749 1543.7 106.811C1551.1 103.105 1559.13 100.803 1567.37 100.019C1564.99 100.623 1563.43 103.311 1563.61 104.775C1563.83 106.581 1564.94 107.179 1566.96 107.875C1594.89 109.975 1620.31 114.858 1635.4 120.15C1641.88 119.168 1648.87 118.358 1656.32 117.828C1661.99 117.421 1667.42 117.218 1672.58 117.165L1654.98 128.105Z" fill="#0ABDC4"/>
</svg>
