<svg id="Calque_1" data-name="Calque 1" xmlns="http://www.w3.org/2000/svg" viewBox="0 0 444.56 645"><defs><style>.cls-1{fill:#fff;}.cls-2{fill:#ffad9e;}.cls-3{fill:#c00;}.cls-4{fill:#900;}</style></defs><path class="cls-1" d="M742.42,293.6c-3.74-33.31-15.09-63.19-32.78-86.36-19.51-25.61-45.81-42.38-78.13-49.93A176.07,176.07,0,0,0,597.67,153C624,89.62,627.24,15.84,606.36-50.1a35.3,35.3,0,0,0-2.52-6.32,39.7,39.7,0,0,0-22.56-20.2c-1-.31-2-.61-3-.92A42.62,42.62,0,0,0,545.68-73c-10.37,6.17-17.15,16.46-19.13,28.89,0,.07-.08.07-.08.15-.08.69-.23,1.37-.3,2.06l-.08.15c-.08.69-.23,1.37-.3,2C518.16,1.81,498.5,36,453.3,86a522.3,522.3,0,0,1-55.19,52.45c-48.41,40-80.5,92-92.92,150.24l-.69,3c0,.23-.07.53-.07.84-.23.84-.38,1.75-.54,2.59v.15c-.23.92-.38,1.91-.53,2.82s-.31,1.68-.46,2.52v.23c-.15.91-.3,1.75-.46,2.67q-1.81,12.22-2.51,24.46l-.69,14.26a256.27,256.27,0,0,0,2.9,36.74c.3,2,.69,3.89,1,5.79,6.1,33.39,19.21,64.72,38.11,90.64.54.76,1.07,1.44,1.6,2.21l.23.22a190.1,190.1,0,0,0,52.83,48.48,192.1,192.1,0,0,0,69.59,25.84l8.46,1.15A208.77,208.77,0,0,0,500.86,555h.91c37.28,0,76.92-8.84,118.08-26.37a.24.24,0,0,1,.15-.08c42.15-20.5,76.23-55.42,98.41-101a251.15,251.15,0,0,0,25.3-102.29A230,230,0,0,0,742.42,293.6Zm-7.85,44.14a3.86,3.86,0,0,1-.08,1,241.84,241.84,0,0,1-23.63,85.07c-21.34,43.9-54,77.44-94.44,97.11-98.26,41.85-166.63,25-206.65,3.43C360.53,497.89,325.47,449,313,389.42a5.63,5.63,0,0,1-.15-1.07c-.3-1.52-.61-3.05-.91-4.57a237.12,237.12,0,0,1-1.15-79c.16-.91.31-1.75.38-2.59l.08-.23c.15-.84.31-1.6.46-2.44s.3-1.9.46-2.82c.07-.07.07-.15.07-.3.15-.77.31-1.53.46-2.29a.46.46,0,0,1,.07-.3.69.69,0,0,1,.08-.39v-.07c.15-1,.38-1.91.53-2.9,12.05-56.41,43.22-106.71,90.18-145.51a546.68,546.68,0,0,0,56-53.28C505.89,40.23,526.09,5.09,534-38.28c.15-.69.3-1.38.38-2.06l.08-.15a19.88,19.88,0,0,1,.38-2.29v-.08A32,32,0,0,1,550-65.8a34.27,34.27,0,0,1,28.5-2.82c.61.15,1.22.46,1.91.69,0,.07,0,.07.08.07a31.35,31.35,0,0,1,15.85,15.17,33.69,33.69,0,0,1,2,5.11c20.74,65.55,17,139-10.21,201.61-.15.23-.23.54-.38.77a5,5,0,0,0-.61,1.37c-16.93,38-42,70.05-72.65,93.07-3.05-.31-6.09-.69-9.22-1.14a163.43,163.43,0,0,1-48.48-15.71,4,4,0,0,1-.53-.3,177.73,177.73,0,0,1-19.9-11.89,4.18,4.18,0,0,0-5.87,1,4.24,4.24,0,0,0,1.07,5.87A173.71,173.71,0,0,0,504,256.4a169.9,169.9,0,0,0,26,2c49.24,0,87.5-21.65,103.13-32.09a4.26,4.26,0,0,0,1.14-5.87,4.17,4.17,0,0,0-5.79-1.15c-15.24,10.22-53,31.56-101.3,30.65,27.9-22.87,50.84-53.21,66.85-88.5a167.45,167.45,0,0,1,35.67,4.11c30.26,7,55,22.8,73.33,46.81,16.77,22,27.52,50.38,31,82.24A220.36,220.36,0,0,1,734.57,337.74Z" transform="translate(-299.24 78.95)"/><path class="cls-2" d="M734.23,339.34a243.71,243.71,0,0,1-23.63,85.07c-21.37,43.85-54,77.39-94.43,97-98.24,41.82-166.57,25-206.58,3.46-49.23-26.41-84.26-75.38-96.76-134.91,27.16,24.45,71.47,55.37,132.64,67.57C578.19,484.05,677.3,400,689.3,389.45A282.53,282.53,0,0,0,734.23,339.34Z" transform="translate(-299.24 78.95)"/><path class="cls-2" d="M609.83,70.06a287.56,287.56,0,0,1-16.63,71.43q-2.49,6.67-5.32,13.18c-.11.27-.24.55-.36.81a4.38,4.38,0,0,0-.61,1.38c-16.91,37.91-42,70-72.64,93q-4.56-.45-9.21-1.18A163.06,163.06,0,0,1,456.61,233C489.11,200.35,535,147.17,559,80.9c14.86-41.13,21-76.27,22.3-106.2a.93.93,0,0,0,0-.24c.09-2,.17-4,.21-5.92,0-1.3.05-2.58.07-3.87,0-2.55,0-5.06,0-7.55v-.84c0-.74,0-1.47,0-2.21l0-2.18q-.13-4.35-.39-8.54-.09-1.17-.15-2.34c-.06-.6-.09-1.19-.13-1.79-.09-1.37-.22-2.71-.34-4-.05-.67-.11-1.34-.18-2a1.45,1.45,0,0,0,0-.3A30.69,30.69,0,0,1,596.08-52a34.6,34.6,0,0,1,2,5.12A291.29,291.29,0,0,1,609.83,70.06Z" transform="translate(-299.24 78.95)"/><path class="cls-3" d="M734.3,338.37c0,.32,0,.63-.07.95v0a282.53,282.53,0,0,1-44.93,50.11c-12,10.53-111.11,94.6-243.83,68.11C384.3,445.36,340,414.44,312.83,390h0c-.07-.34-.15-.67-.2-1-.32-1.53-.62-3.05-.9-4.59a237.12,237.12,0,0,1-1.11-79.05l.39-2.55.05-.24c.13-.82.27-1.64.41-2.47s.34-1.86.52-2.79a1.45,1.45,0,0,0,0-.28c.15-.78.3-1.55.45-2.35a.67.67,0,0,0,0-.26c0-.13.06-.26.08-.39a.15.15,0,0,0,0-.09c.2-1,.39-1.88.61-2.87,12-56.38,43.16-106.68,90.06-145.49a536.1,536.1,0,0,0,56-53.22C505.69,41,525.87,5.78,533.82-37.52c.13-.69.24-1.4.37-2.09l0-.16.39-2.29v-.08c1.64-9.93,7-18.06,15.16-22.92a34.1,34.1,0,0,1,28.5-2.82c.61.2,1.23.44,1.9.72q1.17,11.32,1.41,24v.28c0,2.49.06,5,0,7.55,0,1.29,0,2.57-.07,3.87-.06,1.95-.12,3.93-.21,5.92a.93.93,0,0,1,0,.24C580,4.63,573.85,39.77,559,80.9,535,147.17,489.11,200.35,456.61,233l-.55-.3a171.22,171.22,0,0,1-19.89-11.92,4.2,4.2,0,0,0-4.8,6.9A173.21,173.21,0,0,0,503.74,257a166.44,166.44,0,0,0,26,2c49.26,0,87.51-21.62,103.15-32.11a4.2,4.2,0,0,0-4.69-7c-15.25,10.22-52.94,31.52-101.25,30.66,27.86-22.88,50.82-53.26,66.87-88.53a164.89,164.89,0,0,1,35.59,4.13c30.34,7.05,55,22.79,73.33,46.8,16.75,22,27.5,50.38,31,82.19A219.81,219.81,0,0,1,734.3,338.37Z" transform="translate(-299.24 78.95)"/><ellipse class="cls-4" cx="309.87" cy="74.16" rx="17.99" ry="37.18"/><ellipse class="cls-4" cx="598.67" cy="105.39" rx="37.18" ry="17.99" transform="translate(44.94 736.38) rotate(-75.23)"/><ellipse class="cls-4" cx="550.84" cy="208.55" rx="37.18" ry="17.99" transform="translate(-204.43 660.27) rotate(-60)"/><ellipse class="cls-4" cx="703.99" cy="464.98" rx="37.18" ry="17.99" transform="translate(-421.84 712.94) rotate(-45)"/><ellipse class="cls-4" cx="599.79" cy="529.35" rx="37.18" ry="17.99" transform="translate(-465.58 378.06) rotate(-24.7)"/><ellipse class="cls-4" cx="482.87" cy="548" rx="17.99" ry="37.18" transform="translate(-384.6 1085.85) rotate(-87.54)"/><ellipse class="cls-4" cx="360.17" cy="507.57" rx="17.99" ry="37.18" transform="translate(-558.73 644.65) rotate(-60)"/><ellipse class="cls-4" cx="698.17" cy="408.72" rx="37.18" ry="17.99" transform="translate(-383.76 692.34) rotate(-45)"/><ellipse class="cls-4" cx="590.2" cy="474.52" rx="37.18" ry="17.99" transform="translate(-443.54 369.03) rotate(-24.7)"/><ellipse class="cls-4" cx="473.28" cy="489.4" rx="17.99" ry="37.18" transform="translate(-335.24 1020.18) rotate(-87.54)"/><ellipse class="cls-4" cx="350.58" cy="446.37" rx="17.99" ry="37.18" transform="translate(-510.52 605.74) rotate(-60)"/></svg>