<svg id="Calque_1" data-name="Calque 1" xmlns="http://www.w3.org/2000/svg" viewBox="0 0 1134.77 472.11"><defs><style>.cls-1{fill:#b6e0df;}.cls-2{fill:#0abdc4;}.cls-3{fill:#0b86ac;}.cls-4{fill:#28508a;}.cls-5{fill:#363579;}</style></defs><path class="cls-1" d="M1033.07,224c-72.73,0-141-10.93-203.58-32.62-5.08-1.76-10.85-3.84-17.54-6.25-47.13-17-134.86-48.61-254.61-65-17.54-2.41-35.75-4.48-54.13-6.13A1150.7,1150.7,0,0,0,330,111.85a6,6,0,1,1-.76-12,1161.69,1161.69,0,0,1,175,2.1c18.58,1.67,37,3.75,54.7,6.19,121,16.59,209.5,48.49,257,65.63,6.65,2.4,12.39,4.47,17.4,6.2,74.37,25.79,157.12,36,246,30.49,111.5-7,236.23-38.92,370.73-94.95a6,6,0,1,1,4.61,11.07C1319,183.16,1193,215.41,1080.13,222.47Q1056.31,224,1033.07,224Z" transform="translate(-323.65 -97.55)"/><path class="cls-2" d="M1033.07,310.38c-72.73,0-141-10.93-203.58-32.61-5.08-1.76-10.85-3.84-17.54-6.25-47.13-17-134.86-48.62-254.61-65-17.54-2.41-35.75-4.47-54.13-6.12A1150.7,1150.7,0,0,0,330,198.28a6,6,0,0,1-.76-12,1163,1163,0,0,1,175,2.1c18.58,1.67,37,3.76,54.7,6.2,121,16.59,209.5,48.49,257,65.63,6.65,2.39,12.39,4.46,17.4,6.2,74.37,25.78,157.12,36,246,30.48,111.5-7,236.23-38.91,370.73-95a6,6,0,0,1,4.61,11.08C1319,269.59,1193,301.84,1080.13,308.89Q1056.31,310.38,1033.07,310.38Z" transform="translate(-323.65 -97.55)"/><path class="cls-3" d="M1033.07,396.8c-72.73,0-141-10.92-203.58-32.61-5.08-1.76-10.85-3.84-17.54-6.25-47.13-17-134.86-48.61-254.61-65-17.54-2.41-35.75-4.48-54.13-6.13A1150.7,1150.7,0,0,0,330,284.7a6,6,0,1,1-.76-12,1161.69,1161.69,0,0,1,175,2.1c18.58,1.67,37,3.75,54.7,6.19,121,16.59,209.5,48.49,257,65.63,6.65,2.4,12.39,4.47,17.4,6.2,74.37,25.79,157.12,36,246,30.49,111.5-7,236.23-38.92,370.73-95a6,6,0,0,1,4.61,11.08C1319,356,1193,388.26,1080.13,395.32Q1056.31,396.81,1033.07,396.8Z" transform="translate(-323.65 -97.55)"/><path class="cls-4" d="M1033.07,483.23c-72.73,0-141-10.93-203.58-32.62-5.08-1.76-10.85-3.84-17.54-6.24-47.13-17-134.86-48.62-254.61-65-17.54-2.41-35.75-4.47-54.13-6.12A1150.7,1150.7,0,0,0,330,371.13a6,6,0,1,1-.76-12,1163,1163,0,0,1,175,2.1c18.58,1.67,37,3.76,54.7,6.2,121,16.58,209.5,48.49,257,65.63,6.65,2.39,12.39,4.46,17.4,6.2,74.37,25.78,157.12,36,246,30.48,111.5-7,236.23-38.91,370.73-94.95a6,6,0,0,1,4.61,11.08C1319,442.44,1193,474.69,1080.13,481.74Q1056.31,483.23,1033.07,483.23Z" transform="translate(-323.65 -97.55)"/><path class="cls-5" d="M1033.07,569.65c-72.73,0-141-10.92-203.58-32.61-5.08-1.76-10.85-3.84-17.54-6.25-47.13-17-134.86-48.61-254.61-65-17.54-2.42-35.75-4.48-54.13-6.13A1150.7,1150.7,0,0,0,330,457.55a6,6,0,1,1-.76-12,1161.69,1161.69,0,0,1,175,2.1c18.58,1.67,37,3.75,54.7,6.19,121,16.59,209.5,48.49,257,65.63,6.65,2.4,12.39,4.46,17.4,6.2,74.37,25.78,157.12,36,246,30.49,111.5-7,236.23-38.92,370.73-95a6,6,0,0,1,4.61,11.08C1319,528.86,1193,561.11,1080.13,568.16Q1056.31,569.66,1033.07,569.65Z" transform="translate(-323.65 -97.55)"/></svg>