<svg id="Calque_1" data-name="Calque 1" xmlns="http://www.w3.org/2000/svg" xmlns:xlink="http://www.w3.org/1999/xlink" viewBox="0 0 2089.84178 267.14665"><defs><clipPath id="clip-path" transform="translate(0 -32.85335)"><rect y="32.85335" width="1044.92126" height="267.14665" style="fill:none"/></clipPath><clipPath id="clip-path-2" transform="translate(0 -32.85335)"><rect x="1044.92052" y="32.85335" width="1044.92126" height="267.14665" style="fill:none"/></clipPath></defs><g id="_Répétition_miroir_" data-name="&lt;Répétition miroir&gt;"><g style="clip-path:url(#clip-path)"><path d="M0,245.42163l54.4045-63.6741c54.40484-63.6744,156.14059-157.3748,264.94994-148.27846S544.045,154.4585,652.85433,181.74753s231.759-90.6682,340.57093-117.95708c108.81186-27.28909,203.47143,36.09015,257.88179,54.28283l54.40161,18.19254V300H0Z" transform="translate(0 -32.85335)" style="fill:#64cfd2;fill-rule:evenodd"/></g></g><g id="_Répétition_miroir_2" data-name="&lt;Répétition miroir&gt;"><g style="clip-path:url(#clip-path-2)"><path d="M2089.84178,245.42163l-54.4045-63.6741c-54.40484-63.6744-156.14059-157.3748-264.94994-148.27846S1545.79679,154.4585,1436.98745,181.74753s-231.759-90.6682-340.57093-117.95708C987.60466,36.50136,892.94509,99.8806,838.53473,118.07328l-54.40161,18.19254V300H2089.84178Z" transform="translate(0 -32.85335)" style="fill:#64cfd2;fill-rule:evenodd"/></g></g></svg>