<svg id="Calque_1" data-name="Calque 1" xmlns="http://www.w3.org/2000/svg" xmlns:xlink="http://www.w3.org/1999/xlink" viewBox="0 0 2089.84178 275.53937"><defs><clipPath id="clip-path" transform="translate(0 -22.62598)"><rect y="22.62598" width="1044.92126" height="275.53937" style="fill:none"/></clipPath><clipPath id="clip-path-2" transform="translate(0 -22.62598)"><rect x="1044.92052" y="22.62598" width="1044.92126" height="275.53937" style="fill:none"/></clipPath></defs><g id="_Répétition_miroir_" data-name="&lt;Répétition miroir&gt;"><g style="clip-path:url(#clip-path)"><path d="M0,22.626,62.3415,52.7631c62.3419,34.44242,187.0243,73.19015,311.70771,124.85378s175.17953,51.66363,299.863,34.44242,225.05307-84.67095,349.73743-93.28156c124.6864-8.6106,347.86082,76.06035,410.209,101.89217l62.3382,25.83181v51.66363H0Z" transform="translate(0 -22.62598)" style="fill:#0abdc4;fill-rule:evenodd"/></g></g><g id="_Répétition_miroir_2" data-name="&lt;Répétition miroir&gt;"><g style="clip-path:url(#clip-path-2)"><path d="M2089.84178,22.626l-62.3415,30.13712c-62.3419,34.44242-187.0243,73.19015-311.70771,124.85378s-175.17953,51.66363-299.863,34.44242c-124.68339-17.22121-225.05307-84.67095-349.73742-93.28156-124.68641-8.6106-347.86083,76.06035-410.209,101.89217l-62.3382,25.83181v51.66363H2089.84178Z" transform="translate(0 -22.62598)" style="fill:#0abdc4;fill-rule:evenodd"/></g></g></svg>