<svg id="Calque_1" data-name="Calque 1" xmlns="http://www.w3.org/2000/svg" viewBox="0 0 300.6 467.65"><defs><style>.cls-1{fill:#ffad9e;}.cls-2{fill:#c00;}.cls-3{fill:#fff;}.cls-4{fill:#900;}</style></defs><path class="cls-1" d="M669.65,230a128.58,128.58,0,0,1-12.46,44.86c-11.27,23.12-28.49,40.81-49.8,51.17-51.81,22.05-87.84,13.17-108.94,1.83-26-13.94-44.44-39.77-51-71.16,14.31,12.89,37.68,29.2,69.95,35.64,70,14,122.26-30.36,128.59-35.91A150,150,0,0,0,669.65,230Z" transform="translate(-373.94 -9.78)"/><path class="cls-1" d="M592.47,132.57l-.19.43a2.09,2.09,0,0,0-.32.73c-8.92,20-22.16,36.93-38.31,49-1.6-.15-3.22-.36-4.86-.61a85.68,85.68,0,0,1-25.54-8.27c17.15-17.23,41.34-45.28,54-80.22,8.39-23.19,11.49-42.78,11.88-59.23,0-.69,0-1.38,0-2.06s0-1.37,0-2V29.12c0-.4,0-.79,0-1.18s0-.77,0-1.16,0-.77,0-1.15c0-1.53-.11-3-.2-4.5,0-.41-.06-.83-.08-1.23s0-.64-.07-.95c0-.72-.11-1.44-.18-2.14q0-.54-.09-1a.77.77,0,0,0,0-.15,16.31,16.31,0,0,1,8.35,8,19,19,0,0,1,1.07,2.7A153.71,153.71,0,0,1,592.47,132.57Z" transform="translate(-373.94 -9.78)"/><path class="cls-1" d="M463.27,303.27a322.59,322.59,0,0,0-20.39,100.11q-.15,3.8-.23,7.5c0-2.62.12-5.26.23-7.94a322.34,322.34,0,0,1,20.28-99.81A.76.76,0,0,0,463.27,303.27Z" transform="translate(-373.94 -9.78)"/><path class="cls-2" d="M669.69,229.45c0,.17,0,.33,0,.5h0A150,150,0,0,1,646,256.39c-6.33,5.55-58.61,49.88-128.59,35.91-32.27-6.44-55.64-22.75-69.95-35.64,0-.18-.07-.36-.11-.54-.16-.8-.32-1.61-.47-2.41a125.37,125.37,0,0,1-.59-41.69l.21-1.34,0-.13c.07-.43.14-.86.22-1.3s.17-1,.27-1.48c0-.05,0-.09,0-.14.07-.41.15-.82.24-1.24l0-.13a.78.78,0,0,1,0-.22v0c.11-.5.21-1,.32-1.51,6.34-29.74,22.77-56.27,47.5-76.73a283.94,283.94,0,0,0,29.55-28.07C549.12,72.61,559.77,54.05,564,31.21c.07-.36.13-.73.2-1.09V30c.07-.4.14-.81.2-1.21v0a16.89,16.89,0,0,1,8-12.08,18,18,0,0,1,15-1.5c.33.11.66.24,1,.39.46,4.59.74,9.5.76,14.75,0,.67,0,1.35,0,2s0,1.37,0,2.06c-.39,16.45-3.49,36-11.88,59.23-12.64,34.94-36.83,63-54,80.22l-.29-.15a90.4,90.4,0,0,1-10.49-6.29,2.22,2.22,0,1,0-2.53,3.64,91.42,91.42,0,0,0,38.16,15.45,88.21,88.21,0,0,0,13.7,1.07c26,0,46.14-11.41,54.39-16.94a2.22,2.22,0,0,0-2.47-3.68c-8,5.39-27.92,16.62-53.4,16.17a129.68,129.68,0,0,0,35.27-46.69,87.52,87.52,0,0,1,18.77,2.18A66.14,66.14,0,0,1,653,163.33c8.83,11.58,14.5,26.56,16.38,43.34A117.79,117.79,0,0,1,669.69,229.45Z" transform="translate(-373.94 -9.78)"/><path class="cls-2" d="M463.27,303.27a322.59,322.59,0,0,0-20.39,100.11q-.15,3.8-.23,7.5c0-2.62.12-5.26.23-7.94a322.34,322.34,0,0,1,20.28-99.81A.76.76,0,0,0,463.27,303.27Z" transform="translate(-373.94 -9.78)"/><path class="cls-3" d="M673.81,206.18c-2-17.58-7.94-33.33-17.26-45.54-10.31-13.5-24.16-22.36-41.19-26.31a91,91,0,0,0-17.87-2.26A158.26,158.26,0,0,0,602.1,25a22.11,22.11,0,0,0-1.33-3.32A20.91,20.91,0,0,0,588.87,11c-.54-.18-1.07-.35-1.61-.49a22.54,22.54,0,0,0-17.16,2.37A21.25,21.25,0,0,0,560,28.12s0,0,0,.06l-.18,1.1,0,.08-.18,1.05c-4,22-14.38,39.92-38.21,66.31a278.14,278.14,0,0,1-29.09,27.62c-25.51,21.1-42.45,48.5-49,79.21-.12.53-.23,1.06-.33,1.57,0,.14-.06.28-.08.43-.1.46-.19.92-.27,1.39V207q-.15.73-.27,1.47c-.08.44-.16.89-.23,1.33l0,.13c-.08.47-.15.93-.22,1.4q-1,6.45-1.33,12.89a288.46,288.46,0,0,0-31.24,46.4c-40.68,75.42-39,153.07-30.36,204.93a2.22,2.22,0,0,0,2.19,1.86H552.7a2.22,2.22,0,0,0,1.8-3.52,150.27,150.27,0,0,1-24-52,152.76,152.76,0,0,1,1.81-78.87,116.17,116.17,0,0,0,14.21.91H547c19.62,0,40.55-4.68,62.22-13.91l.09-.05c22.24-10.79,40.19-29.2,51.9-53.24a132.46,132.46,0,0,0,13.33-53.91A119.91,119.91,0,0,0,673.81,206.18ZM526.15,423a154.46,154.46,0,0,0,22.3,50H383c-8.22-51.16-9.41-126.82,30.19-200.24a283.71,283.71,0,0,1,27-41,128.92,128.92,0,0,0,1.53,19.39c.16,1,.34,2.05.52,3.06A117.34,117.34,0,0,0,462.31,302c.28.39.56.77.85,1.15a.76.76,0,0,0,.11.14,99.92,99.92,0,0,0,64.56,39.16A157.31,157.31,0,0,0,526.15,423ZM669.69,229.45c0,.17,0,.33,0,.5h0a128.58,128.58,0,0,1-12.46,44.86c-11.27,23.12-28.49,40.81-49.8,51.17-51.81,22.05-87.84,13.17-108.94,1.83-26-13.94-44.44-39.77-51-71.16,0-.18-.07-.36-.11-.54-.16-.8-.32-1.61-.47-2.41a125.37,125.37,0,0,1-.59-41.69l.21-1.34,0-.13c.07-.43.14-.86.22-1.3s.17-1,.27-1.48c0-.05,0-.09,0-.14.07-.41.15-.82.24-1.24l0-.13a.78.78,0,0,1,0-.22v0c.11-.5.21-1,.32-1.51,6.34-29.74,22.77-56.27,47.5-76.73a283.94,283.94,0,0,0,29.55-28.07C549.12,72.61,559.77,54.05,564,31.21c.07-.36.13-.73.2-1.09V30c.07-.4.14-.81.2-1.21v0a16.89,16.89,0,0,1,8-12.08,18,18,0,0,1,15-1.5c.33.11.66.24,1,.39l.05,0a16.31,16.31,0,0,1,8.35,8,19,19,0,0,1,1.07,2.7,153.71,153.71,0,0,1-5.4,106.27l-.19.43a2.09,2.09,0,0,0-.32.73c-8.92,20-22.16,36.93-38.31,49-1.6-.15-3.22-.36-4.86-.61a85.68,85.68,0,0,1-25.54-8.27l-.29-.15a90.4,90.4,0,0,1-10.49-6.29,2.22,2.22,0,1,0-2.53,3.64,91.42,91.42,0,0,0,38.16,15.45,88.21,88.21,0,0,0,13.7,1.07c26,0,46.14-11.41,54.39-16.94a2.22,2.22,0,0,0-2.47-3.68c-8,5.39-27.92,16.62-53.4,16.17a129.68,129.68,0,0,0,35.27-46.69,87.52,87.52,0,0,1,18.77,2.18A66.14,66.14,0,0,1,653,163.33c8.83,11.58,14.5,26.56,16.38,43.34A117.79,117.79,0,0,1,669.69,229.45Z" transform="translate(-373.94 -9.78)"/><path class="cls-1" d="M548.45,473H447.63A324,324,0,0,1,443,432.23c-.07-1.25-.12-2.52-.17-3.79v-.16c-.05-1.16-.08-2.33-.11-3.51,0-1.46-.06-2.92-.08-4.4,0-1.32,0-2.66,0-4,0-1,0-1.93,0-2.91l0-2.23v-.35q.08-3.7.23-7.5a322.59,322.59,0,0,1,20.39-100.11,99.92,99.92,0,0,0,64.56,39.16A157.31,157.31,0,0,0,526.15,423,154.46,154.46,0,0,0,548.45,473Z" transform="translate(-373.94 -9.78)"/><path class="cls-2" d="M443,432.23A324,324,0,0,0,447.63,473H383c-8.22-51.16-9.41-126.82,30.19-200.24a283.71,283.71,0,0,1,27-41,128.92,128.92,0,0,0,1.53,19.39c.16,1,.34,2.05.52,3.06A117.34,117.34,0,0,0,462.31,302c.28.39.56.77.85,1.15a.76.76,0,0,0,.11.14,322.59,322.59,0,0,0-20.39,100.11q-.15,3.8-.23,7.5v.35l0,2.23c0,1,0,2,0,2.91,0,1.34,0,2.68,0,4,0,1.48,0,2.94.08,4.4,0,1.18.06,2.35.11,3.51v.16C442.87,429.71,442.92,431,443,432.23Z" transform="translate(-373.94 -9.78)"/><ellipse class="cls-4" cx="229.72" cy="38.7" rx="9.49" ry="19.61"/><ellipse class="cls-4" cx="598.16" cy="106.58" rx="19.61" ry="9.49" transform="translate(-31.29 648.04) rotate(-75.23)"/><ellipse class="cls-4" cx="572.93" cy="160.98" rx="19.61" ry="9.49" transform="translate(-226.89 566.89) rotate(-60)"/><ellipse class="cls-4" cx="653.7" cy="296.21" rx="19.61" ry="9.49" transform="translate(-391.93 539.22) rotate(-45)"/><ellipse class="cls-4" cx="598.75" cy="330.15" rx="19.61" ry="9.49" transform="translate(-457.13 270.67) rotate(-24.7)"/><ellipse class="cls-4" cx="103.13" cy="431.24" rx="9.49" ry="19.61"/><ellipse class="cls-4" cx="525.87" cy="440.48" rx="9.49" ry="19.61" transform="translate(-428.63 65.3) rotate(-7.76)"/><ellipse class="cls-4" cx="477.07" cy="375.33" rx="19.61" ry="9.49" transform="translate(-286.99 830.6) rotate(-88.2)"/><ellipse class="cls-4" cx="519.9" cy="380.76" rx="9.49" ry="19.61" transform="translate(-392.19 16.47) rotate(-2.84)"/><ellipse class="cls-4" cx="537.09" cy="339.99" rx="9.49" ry="19.61" transform="translate(-199.59 852.21) rotate(-87.54)"/><ellipse class="cls-4" cx="472.38" cy="318.67" rx="9.49" ry="19.61" transform="translate(-413.73 558.65) rotate(-60)"/><ellipse class="cls-4" cx="650.63" cy="266.54" rx="19.61" ry="9.49" transform="translate(-371.85 528.36) rotate(-45)"/><ellipse class="cls-4" cx="593.69" cy="301.24" rx="19.61" ry="9.49" transform="translate(-445.51 265.91) rotate(-24.7)"/><ellipse class="cls-4" cx="532.03" cy="309.09" rx="9.49" ry="19.61" transform="translate(-173.56 817.58) rotate(-87.54)"/><ellipse class="cls-4" cx="467.32" cy="286.4" rx="9.49" ry="19.61" transform="translate(-388.31 538.13) rotate(-60)"/></svg>